<svg width="17" height="17" viewBox="0 0 17 17" fill="none" xmlns="http://www.w3.org/2000/svg">
<g id="Icon" clip-path="url(#clip0_212_1407)">
<path id="Vector" d="M11.3477 4.1202C11.1035 4.11975 10.8605 4.15352 10.6257 4.2205L10.6257 4.22049L10.6238 4.22106C10.5495 4.24321 10.4716 4.25037 10.3945 4.24212C10.3175 4.23386 10.2428 4.21036 10.1749 4.17298L10.0944 4.31922L10.1749 4.17298C10.1071 4.13561 10.0473 4.0851 9.99911 4.0244C9.95094 3.9637 9.91532 3.89403 9.89432 3.81943C9.87333 3.74483 9.86739 3.66681 9.87685 3.58989C9.8863 3.51298 9.91096 3.43871 9.94939 3.37142C9.98783 3.30413 10.0393 3.24515 10.1007 3.19793C10.1621 3.1507 10.2324 3.11617 10.3073 3.09635L10.3073 3.09638L10.3103 3.09552C10.6476 2.9995 10.9966 2.95108 11.3473 2.95167L11.348 2.95166C12.136 2.94937 12.9056 3.18999 13.5519 3.64076C14.1983 4.09153 14.69 4.73054 14.9601 5.47078C15.2302 6.21103 15.2657 7.01655 15.0616 7.77766C14.8575 8.53876 14.4238 9.21848 13.8195 9.72426L13.6158 9.89481L13.8578 10.0044C14.8505 10.4536 15.7048 11.1605 16.3317 12.0517L16.3324 12.0527C16.377 12.115 16.4087 12.1856 16.4257 12.2603C16.4428 12.335 16.4448 12.4123 16.4317 12.4878C16.4186 12.5632 16.3906 12.6354 16.3494 12.6999C16.3082 12.7645 16.2545 12.8202 16.1916 12.8639L16.1916 12.8638L16.1896 12.8652C16.0922 12.9349 15.9753 12.9722 15.8555 12.9718C15.7618 12.9713 15.6696 12.9484 15.5865 12.9052C15.5034 12.8619 15.4318 12.7995 15.3776 12.7232C14.9224 12.0774 14.3188 11.5503 13.6176 11.1861C12.9163 10.822 12.1379 10.6315 11.3477 10.6306H11.3476C11.1926 10.6306 11.044 10.569 10.9344 10.4595C10.8248 10.3499 10.7633 10.2013 10.7633 10.0463C10.7633 9.89137 10.8248 9.74276 10.9344 9.63319C11.044 9.52362 11.1926 9.46206 11.3476 9.46206C12.0559 9.46206 12.7353 9.18066 13.2362 8.67976C13.7371 8.17887 14.0185 7.4995 14.0185 6.79113C14.0185 6.08275 13.7371 5.40339 13.2362 4.90249C12.7353 4.40163 12.056 4.12023 11.3477 4.1202ZM11.3477 4.1202C11.3477 4.1202 11.3478 4.1202 11.3479 4.1202L11.3476 4.28713V4.1202C11.3476 4.1202 11.3476 4.1202 11.3477 4.1202ZM8.71731 9.72452L8.51454 9.89511L8.75595 10.0044C9.74863 10.4536 10.6029 11.1605 11.2298 12.0517L11.2296 12.0518L11.2347 12.0583C11.2834 12.1207 11.319 12.1924 11.3391 12.2689L11.5006 12.2264L11.3391 12.2689C11.3593 12.3455 11.3637 12.4253 11.3521 12.5036C11.3405 12.5819 11.3131 12.657 11.2716 12.7244C11.23 12.7918 11.1753 12.85 11.1105 12.8956C11.0458 12.9411 10.9725 12.9731 10.8951 12.9895C10.8176 13.0058 10.7377 13.0063 10.66 12.9909C10.5824 12.9754 10.5087 12.9443 10.4435 12.8995C10.3782 12.8547 10.3228 12.7971 10.2804 12.7302L10.2806 12.7301L10.276 12.7236C9.8217 12.0765 9.21828 11.5484 8.51677 11.1838C7.81526 10.8191 7.03627 10.6288 6.24565 10.6288C5.45504 10.6288 4.67605 10.8191 3.97454 11.1838C3.27303 11.5484 2.66961 12.0765 2.21531 12.7236L2.21494 12.7241C2.16154 12.8008 2.09033 12.8634 2.00743 12.9066C1.92452 12.9497 1.83239 12.9721 1.73894 12.9718L1.73791 12.9718C1.61805 12.9722 1.5011 12.9349 1.40359 12.8652L1.40279 12.8647C1.27639 12.7754 1.19055 12.6397 1.16408 12.4873C1.13761 12.3349 1.17267 12.1782 1.26159 12.0516C1.88853 11.1605 2.74272 10.4536 3.73536 10.0044L3.97677 9.89511L3.774 9.72452C3.17136 9.21756 2.73919 8.53754 2.53608 7.77666C2.33297 7.01578 2.36875 6.21085 2.63856 5.47099C2.90838 4.73113 3.39917 4.09213 4.04442 3.64063C4.68966 3.18913 5.45813 2.94696 6.24565 2.94696C7.03318 2.94696 7.80165 3.18913 8.44689 3.64063C9.09213 4.09213 9.58293 4.73113 9.85275 5.47099C10.1226 6.21085 10.1583 7.01578 9.95523 7.77666C9.75212 8.53754 9.31995 9.21756 8.71731 9.72452ZM1.30652 13.001C1.4325 13.0911 1.5836 13.1393 1.73846 13.1388C1.85891 13.1391 1.97764 13.1102 2.08449 13.0546C2.19134 12.999 2.28311 12.9184 2.35194 12.8195C2.79084 12.1944 3.37379 11.6841 4.05153 11.3319C4.72926 10.9796 5.48184 10.7957 6.24565 10.7957C7.00947 10.7957 7.76205 10.9796 8.43978 11.3319C9.11752 11.6841 9.70047 12.1944 10.1394 12.8195L1.30652 13.001ZM4.02486 5.30724C3.73137 5.74647 3.57472 6.26287 3.57472 6.79113C3.57472 7.4995 3.85612 8.17887 4.35702 8.67976C4.85792 9.18066 5.53728 9.46206 6.24565 9.46206C6.77392 9.46206 7.29031 9.30541 7.72955 9.01193C8.16878 8.71844 8.51112 8.3013 8.71327 7.81325C8.91543 7.3252 8.96832 6.78817 8.86527 6.27006C8.76221 5.75195 8.50783 5.27603 8.13429 4.90249C7.76075 4.52896 7.28484 4.27458 6.76673 4.17152C6.24862 4.06846 5.71158 4.12135 5.22353 4.32351C4.73548 4.52567 4.31834 4.86801 4.02486 5.30724Z" fill="#4CAF4F" stroke="#4CAF4F" stroke-width="0.333867"/>
</g>
<defs>
<clipPath id="clip0_212_1407">
<rect width="16.0256" height="16.0256" fill="white" transform="translate(0.736816 0.0302734)"/>
</clipPath>
</defs>
</svg>
