<svg width="17" height="17" viewBox="0 0 17 17" fill="none" xmlns="http://www.w3.org/2000/svg">
<g id="Icon">
<path id="Vector" d="M2.7248 5.89371V6.06065H2.89174H14.9109H15.0779V5.89371V5.14252C15.0779 4.76619 14.9284 4.40528 14.6623 4.13918C14.3962 3.87308 14.0353 3.72358 13.6589 3.72358H4.14374C3.76741 3.72358 3.4065 3.87308 3.1404 4.13918C2.8743 4.40528 2.7248 4.76619 2.7248 5.14252V5.89371ZM15.0779 6.89531V6.72838H14.9109H2.89174H2.7248V6.89531V11.6529C2.7248 12.0292 2.8743 12.3901 3.1404 12.6563C3.4065 12.9224 3.76741 13.0718 4.14374 13.0718H13.6589C14.0353 13.0718 14.3962 12.9224 14.6623 12.6563C14.9284 12.3901 15.0779 12.0292 15.0779 11.6529V6.89531ZM2.05707 5.14252C2.05707 4.5891 2.27691 4.05835 2.66824 3.66702C3.05957 3.27569 3.59032 3.05585 4.14374 3.05585H13.6589C14.2124 3.05585 14.7431 3.27569 15.1344 3.66702C15.5258 4.05835 15.7456 4.5891 15.7456 5.14252V11.6529C15.7456 12.2063 15.5258 12.7371 15.1344 13.1284C14.7431 13.5197 14.2124 13.7396 13.6589 13.7396H4.14374C3.59032 13.7396 3.05957 13.5197 2.66824 13.1284C2.27691 12.7371 2.05707 12.2063 2.05707 11.6529V5.14252ZM11.4053 10.067H12.9077C12.9963 10.067 13.0812 10.1022 13.1438 10.1648C13.2064 10.2274 13.2416 10.3124 13.2416 10.4009C13.2416 10.4895 13.2064 10.5744 13.1438 10.637C13.0812 10.6996 12.9963 10.7348 12.9077 10.7348H11.4053C11.3168 10.7348 11.2319 10.6996 11.1693 10.637C11.1066 10.5744 11.0715 10.4895 11.0715 10.4009C11.0715 10.3124 11.1066 10.2274 11.1693 10.1648C11.2319 10.1022 11.3168 10.067 11.4053 10.067Z" fill="#4CAF4F" stroke="#4CAF4F" stroke-width="0.333867"/>
</g>
</svg>
