<svg width="17" height="17" viewBox="0 0 17 17" fill="none" xmlns="http://www.w3.org/2000/svg">
<g id="Icon">
<g id="Vector">
<path d="M14.0914 14.4074V13.0719C14.0914 12.3635 13.81 11.6842 13.3091 11.1833C12.8082 10.6824 12.1289 10.401 11.4205 10.401H10.7528C10.5757 10.401 10.4058 10.3306 10.2806 10.2054C10.1554 10.0802 10.085 9.91034 10.085 9.73325V6.39458C10.085 6.04039 9.94434 5.70071 9.6939 5.45026C9.44345 5.19982 9.10377 5.05912 8.74958 5.05912C8.39539 5.05912 8.05571 5.19982 7.80526 5.45026C7.55481 5.70071 7.41411 6.04039 7.41411 6.39458V12.4042L5.81155 10.2674C5.68716 10.1016 5.52586 9.96695 5.34042 9.87424C5.15498 9.78152 4.95051 9.73325 4.74318 9.73325H4.45338C3.8758 9.73325 3.40771 10.2013 3.40771 10.7789C3.40771 10.9686 3.45913 11.1549 3.55662 11.3171L5.41091 14.4074M8.74958 3.05592V2.38818V3.05592ZM12.756 7.06231H13.4237H12.756ZM4.07545 7.06231H4.74318H4.07545ZM5.63995 3.95268L5.16786 3.48059L5.63995 3.95268ZM11.8592 3.95268L12.3313 3.48059L11.8592 3.95268Z" fill="#4CAF4F"/>
<path d="M14.0914 14.4074V13.0719C14.0914 12.3635 13.81 11.6842 13.3091 11.1833C12.8082 10.6824 12.1289 10.401 11.4205 10.401H10.7528C10.5757 10.401 10.4058 10.3306 10.2806 10.2054C10.1554 10.0802 10.085 9.91034 10.085 9.73325V6.39458C10.085 6.04039 9.94434 5.70071 9.6939 5.45026C9.44345 5.19982 9.10377 5.05912 8.74958 5.05912V5.05912C8.39539 5.05912 8.05571 5.19982 7.80526 5.45026C7.55481 5.70071 7.41411 6.04039 7.41411 6.39458V12.4042L5.81155 10.2674C5.68716 10.1016 5.52586 9.96695 5.34042 9.87424C5.15498 9.78152 4.95051 9.73325 4.74318 9.73325H4.45338C3.8758 9.73325 3.40771 10.2013 3.40771 10.7789C3.40771 10.9686 3.45913 11.1549 3.55662 11.3171L5.41091 14.4074M8.74958 3.05592V2.38818M12.756 7.06232H13.4237M4.07545 7.06232H4.74318M5.63995 3.95268L5.16786 3.4806M11.8592 3.95268L12.3313 3.4806" stroke="#4CAF4F" stroke-width="0.667733" stroke-linecap="round" stroke-linejoin="round"/>
</g>
</g>
</svg>
