<svg width="20" height="11" viewBox="0 0 20 11" fill="none" xmlns="http://www.w3.org/2000/svg">
<g id="Logo" clip-path="url(#clip0_212_1593)">
<path id="Vector" d="M19.0819 4.4099C19.0838 4.39597 19.0838 4.3819 19.0819 4.36798C19.0837 4.35664 19.0837 4.34507 19.0819 4.3337L18.9459 3.35458C18.9263 3.23745 18.8738 3.12796 18.7944 3.03837L18.771 3.0117L18.7283 2.9698L16.3733 0.981094L16.4394 1.04587C16.3854 0.98247 16.3175 0.931762 16.2408 0.897477C16.1642 0.863191 16.0806 0.8462 15.9964 0.847756H15.2813C15.1651 0.845497 15.0515 0.881739 14.9588 0.950621C14.8615 0.882154 14.7444 0.846098 14.6246 0.847756H13.9096C13.8158 0.846264 13.7233 0.869082 13.6414 0.913905C13.5595 0.958728 13.4911 1.02397 13.4432 1.10301C13.3694 1.21591 13.3416 1.35193 13.3655 1.48399L13.4549 2.10117C13.3957 2.06826 13.3287 2.05119 13.2606 2.05165H9.79811C9.67388 2.05241 9.55251 2.08811 9.44835 2.15451C9.34763 2.21631 9.26679 2.30481 9.21519 2.40976L8.94705 2.18498C8.84151 2.08925 8.70221 2.03737 8.55845 2.04022H3.12572C3.00105 2.04244 2.87915 2.07659 2.7721 2.13927C2.62564 2.22331 2.51831 2.35995 2.47287 2.52024L0.747451 8.17776C0.715213 8.27099 0.712041 8.37152 0.738343 8.46652C0.764645 8.5615 0.81923 8.64669 0.895124 8.71114C0.914899 8.72757 0.935664 8.74284 0.957302 8.75684C0.957302 8.75684 0.922322 8.73398 0.902892 8.71495L3.25786 10.7075C3.35748 10.7974 3.48773 10.8476 3.62313 10.8484H9.09862C9.22366 10.8452 9.34564 10.8097 9.45225 10.7455C9.51254 10.7132 9.56648 10.6707 9.61157 10.6198L9.63101 10.5931L9.6621 10.5551L9.6854 10.5131L9.9419 10.7303C10.0401 10.8167 10.1675 10.8642 10.2994 10.8637H15.7865C15.9114 10.8596 16.0332 10.8242 16.1402 10.7608C16.1991 10.7265 16.2527 10.6842 16.2995 10.6351L16.3189 10.6084L16.35 10.5703C16.3665 10.5462 16.3809 10.5207 16.3927 10.4941C16.4054 10.471 16.4159 10.4468 16.4238 10.4217L17.9977 5.25567V5.20995C17.9996 5.19222 17.9996 5.17434 17.9977 5.15661V5.12233C17.9996 5.11096 17.9996 5.0994 17.9977 5.08803C17.9995 5.06394 17.9995 5.03975 17.9977 5.01564H18.5029C18.5468 5.01959 18.5911 5.01959 18.635 5.01564H18.67C18.6984 5.00732 18.7258 4.99581 18.7516 4.98136H18.7905L18.8604 4.92802L18.8915 4.90516L18.9459 4.83658V4.81374L18.9848 4.74896C18.9826 4.73637 18.9826 4.72347 18.9848 4.71088C18.9827 4.70469 18.9827 4.69801 18.9848 4.69182C18.993 4.66948 18.9995 4.64655 19.0042 4.62324C19.0024 4.61572 19.0024 4.60789 19.0042 4.60037C19.0023 4.58903 19.0023 4.57744 19.0042 4.56609C19.0042 4.56609 19.0819 4.41751 19.0819 4.4099Z" fill="black"/>
<path id="Vector_2" d="M8.71774 2.47465C8.73837 2.49294 8.75278 2.51699 8.75903 2.54355C8.7653 2.57012 8.76308 2.59793 8.75273 2.62323L7.0312 8.27693C7.00952 8.33866 6.96517 8.39026 6.90685 8.42171C6.85938 8.45284 6.80445 8.47122 6.7475 8.47505H1.27593C1.2292 8.47285 1.18493 8.45387 1.15157 8.42171C1.13173 8.40371 1.1178 8.38032 1.11157 8.35456C1.10534 8.32877 1.10709 8.30175 1.1166 8.27693L2.84201 2.62323C2.86189 2.56072 2.90485 2.50774 2.96248 2.47465C3.01073 2.44576 3.0654 2.42876 3.12181 2.42512H8.59338C8.63975 2.42556 8.6842 2.44327 8.71774 2.47465ZM5.86148 7.13781L6.89129 3.76235H4.00784L2.98191 7.13781H5.86148ZM13.9406 2.53179C13.9593 2.55306 13.9826 2.56993 14.0089 2.58114C14.0351 2.59235 14.0636 2.59762 14.0922 2.59656H14.8033C14.8304 2.59682 14.8571 2.59031 14.8809 2.57764C14.9047 2.56498 14.9248 2.54657 14.9393 2.52417C14.952 2.50667 14.9609 2.48687 14.9656 2.46592C14.9702 2.44498 14.9706 2.42333 14.9665 2.40226L14.8266 1.39648C14.8133 1.34993 14.7894 1.30695 14.7567 1.27076C14.738 1.24949 14.7147 1.23262 14.6885 1.22141C14.6622 1.2102 14.6337 1.20493 14.6051 1.20599H13.894C13.8669 1.20573 13.8402 1.21224 13.8164 1.22491C13.7926 1.23758 13.7725 1.25598 13.758 1.27838C13.7308 1.33172 13.7191 1.366 13.7308 1.39648L13.8746 2.40226C13.8819 2.45124 13.9051 2.49662 13.9406 2.53179ZM16.1984 1.38886C16.1851 1.34231 16.1612 1.29933 16.1285 1.26314C16.1106 1.24195 16.0879 1.22509 16.0623 1.21385C16.0367 1.20262 16.0088 1.19732 15.9808 1.19837H15.2658C15.2391 1.19763 15.2128 1.20396 15.1895 1.21671C15.1663 1.22945 15.147 1.24813 15.1337 1.27076C15.1078 1.30456 15.0966 1.34701 15.1026 1.38886L15.2463 2.39464C15.2554 2.4431 15.2783 2.48803 15.3124 2.52417C15.3314 2.54503 15.3548 2.56161 15.381 2.57279C15.4071 2.58397 15.4354 2.58947 15.4639 2.58894H16.179C16.2056 2.58928 16.2317 2.58278 16.2549 2.57007C16.2781 2.55737 16.2975 2.53892 16.3111 2.51656C16.3246 2.49951 16.3341 2.47971 16.3388 2.45862C16.3435 2.43752 16.3433 2.41566 16.3383 2.39464L16.1984 1.38886ZM13.315 2.91277L13.245 2.4175H9.79807C9.74395 2.42042 9.6916 2.43753 9.6465 2.46703C9.61789 2.48233 9.59297 2.50354 9.57351 2.52919C9.55408 2.55484 9.54054 2.58432 9.53383 2.61561L9.24625 3.56043C9.23477 3.58404 9.23085 3.61053 9.235 3.63637C9.23919 3.66221 9.25122 3.6862 9.26956 3.70521C9.30233 3.7354 9.3451 3.75301 9.39004 3.75474H13.5792L12.5494 7.1302H8.37188C8.31802 7.1314 8.26556 7.14723 8.22034 7.1759C8.16538 7.21013 8.12523 7.26304 8.10764 7.32449L7.81618 8.26932C7.80667 8.29356 7.80417 8.3199 7.80896 8.34544C7.81378 8.37101 7.82567 8.39475 7.84337 8.41408C7.87512 8.4463 7.91822 8.46538 7.96385 8.46741H13.451C13.5077 8.46263 13.5624 8.44432 13.6103 8.41408C13.6677 8.38248 13.7107 8.33077 13.7308 8.26932L15.3085 3.10326H13.5326C13.5044 3.1038 13.4764 3.09868 13.4504 3.08819C13.4243 3.07771 13.4007 3.06208 13.381 3.0423C13.3489 3.00775 13.3262 2.96583 13.315 2.92039V2.91277Z" fill="white"/>
</g>
<defs>
<clipPath id="clip0_212_1593">
<rect width="18.3627" height="10.016" fill="white" transform="translate(0.720703 0.847656)"/>
</clipPath>
</defs>
</svg>
