<svg width="19" height="8" viewBox="0 0 19 8" fill="none" xmlns="http://www.w3.org/2000/svg">
<g id="Logo" clip-path="url(#clip0_212_1617)">
<path id="Vector" d="M4.984 0.51709C4.306 0.51709 3.65579 0.78642 3.17638 1.26583L1.61178 2.83043C1.13237 3.30984 0.863037 3.96006 0.863037 4.63805C0.863037 6.0499 2.00756 7.19442 3.41941 7.19442C4.0974 7.19442 4.74762 6.92508 5.22703 6.44567L6.30927 5.36343C6.30927 5.36341 6.30929 5.36345 6.30927 5.36343L9.46255 2.21015C9.69151 1.98119 10.0021 1.85256 10.3259 1.85256C10.868 1.85256 11.3276 2.20588 11.4869 2.69481L12.4821 1.69964C12.0281 0.988585 11.232 0.51709 10.3259 0.51709C9.64787 0.51709 8.99765 0.78642 8.51824 1.26583L4.28272 5.50136C4.05376 5.73033 3.74321 5.85895 3.41941 5.85895C2.74512 5.85895 2.1985 5.31235 2.1985 4.63805C2.1985 4.31424 2.32713 4.0037 2.5561 3.77474L4.12068 2.21015C4.34965 1.98119 4.66019 1.85256 4.984 1.85256C5.52613 1.85256 5.98571 2.20589 6.14505 2.69484L7.14024 1.69966C6.68625 0.988598 5.8902 0.51709 4.984 0.51709Z" fill="#394149"/>
<path id="Vector_2" d="M9.62467 5.50136C9.3957 5.73033 9.08516 5.85895 8.76136 5.85895C8.21931 5.85895 7.75976 5.50572 7.60037 5.01688L6.60522 6.01202C7.05924 6.72298 7.85524 7.19442 8.76136 7.19442C9.43935 7.19442 10.0896 6.92508 10.569 6.44567L14.8045 2.21015C15.0335 1.98119 15.344 1.85256 15.6678 1.85256C16.3421 1.85256 16.8887 2.39917 16.8887 3.07346C16.8887 3.39727 16.7601 3.70781 16.5311 3.93677L14.9665 5.50136C14.7376 5.73033 14.427 5.85895 14.1032 5.85895C13.5611 5.85895 13.1016 5.50566 12.9422 5.01677L11.947 6.01193C12.401 6.72296 13.1971 7.19442 14.1032 7.19442C14.7812 7.19442 15.4314 6.92508 15.9108 6.44567L17.4754 4.88108C17.9548 4.40167 18.2242 3.75146 18.2242 3.07346C18.2242 1.66162 17.0797 0.51709 15.6678 0.51709C14.9898 0.51709 14.3396 0.78642 13.8602 1.26583L9.62467 5.50136Z" fill="#394149"/>
</g>
<defs>
<clipPath id="clip0_212_1617">
<rect width="17.3611" height="6.67733" fill="white" transform="translate(0.863037 0.51709)"/>
</clipPath>
</defs>
</svg>
