<svg width="14" height="10" viewBox="0 0 14 10" fill="none" xmlns="http://www.w3.org/2000/svg">
<g id="Logo" clip-path="url(#clip0_212_1613)">
<path id="Vector" d="M12.9819 0.79708C12.9819 0.952659 13.1096 1.07878 13.2671 1.07878H13.5523C13.7098 1.07878 13.8375 0.952659 13.8375 0.79708C13.8375 0.641502 13.7098 0.515381 13.5523 0.515381H13.2671C13.1096 0.515381 12.9819 0.641502 12.9819 0.79708Z" fill="#212326"/>
<path id="Vector_2" d="M4.71177 9.52978H6.09712L5.69381 9.13139C5.58685 9.02574 5.44178 8.96638 5.29052 8.96638H4.71177C2.50677 8.96638 0.719281 7.20068 0.719281 5.02258C0.719281 2.84448 2.50677 1.07878 4.71177 1.07878H9.27461C11.4796 1.07878 13.2671 2.84448 13.2671 5.02258C13.2671 7.20068 11.4796 8.96638 9.27461 8.96638H7.56774C7.34083 8.96638 7.12323 8.87734 6.96278 8.71886L6.4903 8.25212C6.22289 7.98798 5.86019 7.83958 5.48202 7.83958H4.71177C3.13677 7.83958 1.85999 6.57837 1.85999 5.02258C1.85999 3.46678 3.13677 2.20558 4.71177 2.20558H9.27461C10.8496 2.20558 12.1264 3.46678 12.1264 5.02258C12.1264 6.57837 10.8496 7.83958 9.27461 7.83958H8.17864C7.95173 7.83958 7.73413 7.75054 7.57368 7.59207L7.10117 7.12532C6.83377 6.86118 6.47109 6.71278 6.09292 6.71278H4.71177C3.76678 6.71278 3.0007 5.95604 3.0007 5.02258C3.0007 4.08912 3.76678 3.33238 4.71177 3.33238H9.27461C10.2196 3.33238 10.9857 4.08912 10.9857 5.02258C10.9857 5.94466 10.2382 6.6943 9.30911 6.71244L9.30892 6.71278H8.89158C8.66467 6.71278 8.44707 6.62374 8.28662 6.46527L7.81411 5.99852C7.59471 5.78177 7.31115 5.64297 7.00752 5.60013L6.99319 5.58598H4.71177C4.39677 5.58598 4.14141 5.33373 4.14141 5.02258C4.14141 4.71142 4.39677 4.45918 4.71177 4.45918H9.27461C9.58961 4.45918 9.84497 4.71142 9.84497 5.02258C9.84497 5.33373 9.58961 5.58598 9.27461 5.58598H8.1339L8.53721 5.98437C8.64416 6.09002 8.78924 6.14938 8.9405 6.14938H9.27461C9.9046 6.14938 10.4153 5.64489 10.4153 5.02258C10.4153 4.40027 9.9046 3.89578 9.27461 3.89578H4.71177C4.08178 3.89578 3.57106 4.40027 3.57106 5.02258C3.57106 5.64489 4.08178 6.14938 4.71177 6.14938H6.80586C7.03277 6.14938 7.25038 6.23842 7.41083 6.39689L7.88333 6.86363C8.15074 7.12778 8.51342 7.27618 8.89158 7.27618H9.4172V7.27185C10.6108 7.19915 11.556 6.21989 11.556 5.02258C11.556 3.77796 10.5346 2.76898 9.27461 2.76898H4.71177C3.45179 2.76898 2.43035 3.77796 2.43035 5.02258C2.43035 6.26722 3.45179 7.27618 4.71177 7.27618H6.09292C6.31983 7.27618 6.53743 7.36522 6.69788 7.52369L7.17039 7.99043C7.43779 8.25458 7.80047 8.40298 8.17864 8.40298H9.27461C11.1646 8.40298 12.6967 6.88953 12.6967 5.02258C12.6967 3.15563 11.1646 1.64218 9.27461 1.64218H4.71177C2.82177 1.64218 1.28964 3.15563 1.28964 5.02258C1.28964 6.88953 2.82177 8.40298 4.71177 8.40298H5.48202C5.70893 8.40298 5.92653 8.49202 6.08699 8.65049L6.55949 9.11723C6.8269 9.38138 7.18957 9.52978 7.56774 9.52978H9.27461C11.7946 9.52978 13.8375 7.51184 13.8375 5.02258C13.8375 2.53332 11.7946 0.515381 9.27461 0.515381L4.71177 0.515382C2.19178 0.515382 0.148926 2.53332 0.148926 5.02258C0.148926 7.51184 2.19178 9.52978 4.71177 9.52978Z" fill="#212326"/>
</g>
<defs>
<clipPath id="clip0_212_1613">
<rect width="13.6885" height="9.0144" fill="white" transform="translate(0.148926 0.515381)"/>
</clipPath>
</defs>
</svg>
