<svg width="17" height="10" viewBox="0 0 17 10" fill="none" xmlns="http://www.w3.org/2000/svg">
<g id="Logo" clip-path="url(#clip0_212_1597)">
<path id="Vector" d="M15.1237 1.37174C15.1237 1.38303 15.1237 1.39714 15.1208 1.40561C15.1061 1.51568 15.1061 1.62575 15.1149 1.73864C15.1208 1.76687 15.1267 1.79509 15.1502 1.81767C15.1884 1.86 15.2472 1.85154 15.2708 1.80074C15.2825 1.77534 15.2825 1.74993 15.2766 1.72453C15.2472 1.61728 15.2413 1.50439 15.2384 1.39432C15.2384 1.38868 15.2384 1.38021 15.2384 1.37174C15.2708 1.36892 15.3002 1.3661 15.3266 1.3661C15.3472 1.36328 15.3649 1.36045 15.3796 1.35198C15.4237 1.32941 15.4237 1.28143 15.3766 1.25885C15.359 1.25038 15.3355 1.24756 15.3149 1.24756C15.2413 1.25038 15.1678 1.25038 15.0943 1.25038C15.0679 1.25038 15.0414 1.2532 15.0149 1.25603C15.0002 1.25885 14.9826 1.25885 14.9708 1.26732C14.9502 1.27578 14.9385 1.28989 14.9385 1.30965C14.9414 1.32941 14.9502 1.3407 14.9708 1.34916C14.9826 1.35763 14.9973 1.36045 15.012 1.36045C15.0473 1.36328 15.0855 1.36892 15.1237 1.37174ZM15.9324 1.50157C15.9324 1.50439 15.9353 1.50721 15.9353 1.50721C15.9471 1.58342 15.9589 1.6568 15.9677 1.73018C15.9706 1.75558 15.9736 1.77816 15.9912 1.79791C16.0294 1.84589 16.0883 1.84025 16.1147 1.78945C16.1265 1.76405 16.1294 1.73864 16.1235 1.71042C16.1059 1.62575 16.0971 1.54108 16.0794 1.45923C16.0677 1.40843 16.053 1.36045 16.0383 1.3153C16.0294 1.28707 16.0089 1.26731 15.9736 1.26449C15.9383 1.25885 15.9118 1.27578 15.8971 1.30118C15.8795 1.32376 15.8648 1.34634 15.853 1.37174C15.8324 1.4169 15.8148 1.46206 15.7913 1.50439C15.7883 1.51568 15.7854 1.52415 15.7795 1.53261C15.7765 1.52697 15.7736 1.52415 15.7736 1.52415C15.7354 1.45359 15.7001 1.38303 15.6619 1.3153C15.656 1.30965 15.653 1.30401 15.6501 1.29836C15.6325 1.27296 15.6119 1.25885 15.5795 1.25885C15.5501 1.26167 15.5266 1.27861 15.5119 1.30401C15.506 1.3153 15.506 1.32376 15.5031 1.33505C15.4913 1.42537 15.4766 1.51568 15.4648 1.606C15.4589 1.6568 15.456 1.7076 15.456 1.7584C15.4531 1.76969 15.456 1.7838 15.4619 1.79509C15.4678 1.81767 15.4854 1.83178 15.5089 1.8346C15.5383 1.83743 15.5589 1.82896 15.5678 1.80638C15.5766 1.78945 15.5795 1.77534 15.5825 1.76122C15.5942 1.71042 15.603 1.66244 15.6119 1.61446C15.6177 1.58624 15.6207 1.56366 15.6295 1.53261C15.6354 1.5439 15.6413 1.55237 15.6472 1.56084C15.6736 1.59471 15.7001 1.62857 15.7324 1.6568C15.7648 1.67937 15.7913 1.67655 15.8177 1.65115C15.8236 1.64551 15.8265 1.64269 15.8324 1.63704C15.8589 1.59753 15.8912 1.55802 15.9177 1.5185C15.9236 1.51286 15.9265 1.50721 15.9324 1.50157Z" fill="#3A3B7B"/>
<path id="Vector_2" d="M9.15699 1.42715C9.13654 1.48079 9.13264 1.51943 9.14208 1.55155C9.15251 1.59523 9.17956 1.60952 9.21628 1.59842C9.56168 1.51644 10.3191 1.74912 10.5995 1.81397C10.6656 1.82759 10.7194 1.74565 10.6743 1.67219C10.6084 1.60105 9.85137 1.29647 9.56251 1.27986C9.44928 1.27372 9.24686 1.24585 9.15699 1.42715Z" fill="#3A3B7B"/>
<path id="Vector_3" d="M12.117 0.441301C12.1538 0.461693 12.1744 0.481145 12.1845 0.502879C12.1997 0.531389 12.1917 0.551114 12.1663 0.561179C11.9379 0.668127 11.6341 1.12856 11.5115 1.28736C11.4818 1.32389 11.4132 1.30266 11.4028 1.24259C11.405 1.17466 11.6743 0.67499 11.8246 0.538897C11.8836 0.485762 11.9812 0.381505 12.117 0.441301Z" fill="#3A3B7B"/>
<path id="Vector_4" d="M10.2987 0.214603C10.3429 0.182613 10.3889 0.171403 10.4124 0.192192C10.7568 0.474943 10.9395 0.922704 11.0526 1.33262C11.0569 1.34217 11.0572 1.35587 11.0537 1.37017C11.0523 1.38239 11.043 1.3953 11.0283 1.40529C11.0125 1.41631 10.9989 1.41967 10.9925 1.41017C10.8415 1.21308 9.97922 0.446231 10.2987 0.214603Z" fill="#3A3B7B"/>
<path id="Vector_5" d="M3.004 5.11691C3.08656 5.05792 3.17632 5.0088 3.2713 4.97069C3.37067 4.94343 3.47659 4.94794 3.57305 4.98359C3.66949 5.01923 3.75124 5.08404 3.80589 5.16823C3.85478 5.2522 3.8739 5.34915 3.86041 5.44448C3.84691 5.53978 3.80152 5.62831 3.73104 5.69672C3.67641 5.75217 3.61438 5.80047 3.54662 5.84039C3.24458 6.02767 2.93984 6.20468 2.63512 6.39196C2.57277 6.43883 2.50663 6.48088 2.43732 6.51768C2.3319 6.56813 2.21143 6.58164 2.09672 6.55588C1.98202 6.53013 1.88031 6.46669 1.80917 6.37658C1.75599 6.31277 1.71111 6.24299 1.67552 6.16877C1.38683 5.58641 1.08746 5.0066 0.809468 4.41397C0.681163 4.15744 0.576917 3.8624 0.475343 3.57763C0.431398 3.49489 0.422816 3.39897 0.451426 3.31025C0.480036 3.22153 0.543579 3.14702 0.62854 3.10257C0.713502 3.05812 0.813176 3.04725 0.906367 3.07225C0.999558 3.09724 1.07891 3.15615 1.12755 3.23642C1.27706 3.42712 1.40941 3.62967 1.52316 3.84189C1.81184 4.35497 2.08716 4.86806 2.36515 5.36577C2.38134 5.39327 2.39919 5.41981 2.41861 5.44529C2.62785 5.36086 2.82464 5.25046 3.004 5.11691Z" fill="#3A3B7B"/>
<path id="Vector_6" d="M5.98877 4.93793C5.32855 5.67933 4.22193 5.49205 3.66595 4.5377C3.27034 3.86041 3.20084 2.74186 4.06156 2.03636C4.24535 1.88866 4.46513 1.78804 4.70039 1.74389C4.98885 1.7042 5.283 1.75305 5.5408 1.88344C5.79859 2.01384 6.00684 2.21911 6.1358 2.46993C6.60624 3.29088 6.53942 4.33759 5.98877 4.93793ZM5.72147 3.20878C5.65133 3.00704 5.51062 2.83481 5.3232 2.72133C5.21714 2.64878 5.08827 2.61351 4.9583 2.62145C4.8283 2.6294 4.70514 2.68007 4.60951 2.76495C4.22729 3.09077 4.14708 3.86299 4.42507 4.32221C4.46051 4.39709 4.51254 4.46363 4.57757 4.51719C4.6426 4.57075 4.71904 4.61003 4.80154 4.63226C4.88403 4.6545 4.97058 4.65917 5.05516 4.64594C5.13974 4.6327 5.22026 4.60189 5.29114 4.55566C5.49834 4.40147 5.65035 4.18917 5.72602 3.94826C5.80173 3.70733 5.79733 3.44976 5.71347 3.21136L5.72147 3.20878Z" fill="#3A3B7B"/>
<path id="Vector_7" d="M8.68308 3.53198C8.61549 3.54593 8.54566 3.54677 8.47772 3.53442C8.4098 3.52208 8.3451 3.49684 8.28749 3.46016C8.23707 3.43247 8.19368 3.39443 8.16041 3.34872C8.12717 3.30302 8.10488 3.25082 8.09518 3.19586C8.08545 3.14091 8.08856 3.08458 8.10423 3.03091C8.11992 2.97724 8.14783 2.92757 8.18592 2.88548C8.25227 2.80089 8.34647 2.74033 8.45322 2.7136C8.73192 2.63596 9.01884 2.58863 9.30857 2.5725C9.37224 2.56539 9.43673 2.57057 9.49826 2.58771C9.55982 2.60487 9.61716 2.63363 9.66697 2.67236C9.71676 2.71107 9.75801 2.75895 9.78827 2.81317C9.81851 2.86739 9.83718 2.92687 9.84317 2.98811C9.92669 3.28891 9.93584 3.60431 9.86989 3.90912C9.62933 4.89426 8.8007 5.23289 7.87049 4.91734C7.60938 4.83297 7.38044 4.67577 7.21294 4.46582C6.98954 4.21299 6.83114 3.91335 6.75051 3.591C6.68519 3.30394 6.69234 3.00609 6.7714 2.72225C6.85044 2.43841 6.99909 2.17682 7.20492 1.95935C7.40026 1.72298 7.65379 1.53696 7.94268 1.41803C8.12522 1.32146 8.33882 1.29401 8.54143 1.34107C8.58738 1.35328 8.6291 1.37706 8.66225 1.40996C8.69541 1.44286 8.71879 1.48368 8.72997 1.52817C8.74116 1.57267 8.73973 1.61922 8.72585 1.66301C8.71195 1.7068 8.68613 1.74623 8.65102 1.7772C8.58427 1.83519 8.51175 1.88675 8.4345 1.93113C8.19686 2.07637 7.99006 2.26354 7.82505 2.4827C7.71689 2.62452 7.6424 2.78738 7.60685 2.95979C7.57127 3.1322 7.57551 3.30999 7.61925 3.48069C7.67986 3.71341 7.81438 3.9223 8.00414 4.07843C8.5922 4.59153 9.35668 4.09638 9.22303 3.39601C9.02792 3.4422 8.85683 3.49094 8.68308 3.53198Z" fill="#3A3B7B"/>
<path id="Vector_8" d="M12.2758 4.97879C11.4071 5.4919 10.4181 4.97879 10.2015 3.9013C10.0438 3.13166 10.3432 2.05415 11.391 1.64367C11.614 1.55822 11.8558 1.52822 12.094 1.55645C12.3803 1.60674 12.6429 1.74199 12.8447 1.94313C13.0466 2.14426 13.1777 2.40114 13.2193 2.67757C13.3958 3.59343 12.9948 4.57088 12.2758 4.97879ZM12.5778 3.25222C12.5776 3.03911 12.499 2.83288 12.356 2.66986C12.2795 2.56904 12.169 2.4968 12.0432 2.46544C11.9174 2.4341 11.7843 2.44559 11.6663 2.49798C11.1959 2.69295 10.8644 3.40102 10.9847 3.92183C10.9939 4.00356 11.0216 4.08238 11.0658 4.15277C11.11 4.22316 11.1698 4.28343 11.2408 4.32938C11.3118 4.37531 11.3924 4.4058 11.477 4.41872C11.5616 4.43162 11.6481 4.42664 11.7305 4.40413C11.9792 4.32075 12.1945 4.16494 12.3464 3.95842C12.4983 3.75191 12.5792 3.50501 12.5778 3.25222Z" fill="#3A3B7B"/>
<path id="Vector_9" d="M14.0977 5.19449C14.0846 5.28838 14.0332 5.37343 13.9547 5.43093C13.8763 5.48841 13.7772 5.51365 13.6794 5.50106C13.5816 5.48847 13.493 5.4391 13.4331 5.3638C13.3731 5.28852 13.3469 5.19346 13.36 5.09956C13.3731 5.00567 13.4246 4.92062 13.503 4.86312C13.5814 4.80562 13.6805 4.7804 13.7783 4.79299C13.8761 4.80558 13.9648 4.85493 14.0247 4.93023C14.0846 5.00553 14.1109 5.1006 14.0977 5.19449ZM13.8652 1.73365C13.916 1.65913 13.9906 1.60238 14.0778 1.57187C14.165 1.54135 14.2601 1.53871 14.349 1.56433C14.4394 1.58603 14.5192 1.63686 14.5752 1.70832C14.6311 1.77978 14.6598 1.86752 14.6564 1.95685C14.6446 2.10014 14.6223 2.24245 14.5896 2.38271C14.5014 2.85733 14.4158 3.33193 14.3223 3.80143C14.2795 3.98871 14.2234 4.16829 14.1619 4.35813C14.1405 4.41748 14.1048 4.4711 14.0576 4.51463C14.0283 4.54737 13.9909 4.57248 13.9488 4.58764C13.9067 4.60282 13.8613 4.60755 13.8168 4.60142C13.7723 4.59528 13.7302 4.57846 13.6942 4.55254C13.6583 4.5266 13.6298 4.49238 13.6113 4.45306C13.5795 4.38251 13.5622 4.3067 13.5605 4.22986C13.5605 3.91174 13.5605 3.59106 13.5818 3.27036C13.6182 2.81271 13.6897 2.35824 13.7957 1.91067C13.8082 1.8507 13.8317 1.79336 13.8652 1.74135V1.73365Z" fill="#3A3B7B"/>
<path id="Vector_10" fill-rule="evenodd" clip-rule="evenodd" d="M1.87477 7.25602C1.84321 7.32364 1.83455 7.39903 1.84998 7.47158C1.86024 7.56721 1.88277 7.66129 1.91707 7.75164C1.95989 7.86228 2.00781 7.97169 2.06689 8.10653C2.08048 8.13756 2.09467 8.16995 2.10953 8.20404C2.18921 8.38672 2.28918 8.62019 2.42252 8.95808C2.46026 9.05406 2.49378 9.15084 2.52753 9.24827C2.54116 9.28764 2.55485 9.32714 2.56885 9.36673C2.61906 9.50747 2.70544 9.63391 2.81995 9.73412C2.86857 9.7892 2.93306 9.82933 3.00538 9.8494C3.07911 9.86987 3.15752 9.86857 3.23047 9.84568C3.30341 9.82278 3.36748 9.77934 3.41435 9.721C3.4603 9.66381 3.48763 9.59489 3.49294 9.5229C3.52276 9.38264 3.51258 9.23721 3.46344 9.10199C3.38546 8.87747 3.29662 8.65263 3.19417 8.43271L3.1937 8.43174C3.02517 8.08767 2.85386 7.74598 2.67445 7.40416L2.67311 7.40176C2.62058 7.31271 2.55233 7.23309 2.4714 7.16651C2.41887 7.10707 2.3464 7.06698 2.26637 7.05316C2.18464 7.03905 2.10034 7.05327 2.02853 7.0933C1.9606 7.13053 1.90675 7.1875 1.87477 7.25602Z" fill="#3A3B7B"/>
<path id="Vector_11" fill-rule="evenodd" clip-rule="evenodd" d="M4.44866 6.40861C4.18441 6.34292 3.90844 6.33335 3.63997 6.38057C3.43203 6.40022 3.22753 6.44626 3.08552 6.53744C3.01329 6.58385 2.95489 6.64344 2.92241 6.71918C2.88975 6.79534 2.88558 6.88244 2.91235 6.97948C2.96122 7.15723 3.02468 7.33006 3.08791 7.50233L3.09816 7.53024L3.09841 7.53085C3.28881 8.03133 3.48104 8.53011 3.67501 9.02718C3.69763 9.10552 3.72962 9.18108 3.77033 9.25236L3.77109 9.25368C3.82487 9.34222 3.89384 9.42142 3.9751 9.48794C4.01574 9.52451 4.066 9.54982 4.1205 9.56113C4.17553 9.57253 4.23276 9.56923 4.28596 9.55153C4.33917 9.53386 4.38629 9.50251 4.42221 9.46087C4.45753 9.41992 4.48067 9.37059 4.48916 9.31809C4.52422 9.17545 4.51299 9.02593 4.45695 8.88959C4.43947 8.8437 4.42575 8.79681 4.41129 8.74746C4.40647 8.731 4.40158 8.71425 4.39643 8.6972C4.84043 8.53062 5.31287 8.30663 5.479 7.78556C5.54405 7.60549 5.54948 7.41051 5.49451 7.22734C5.4395 7.04397 5.32663 6.88145 5.17146 6.76213C4.96027 6.59512 4.71358 6.47444 4.44866 6.40861ZM3.71619 7.04774C3.72493 7.04532 3.73374 7.04307 3.74257 7.04098C4.03164 6.99737 4.32738 7.05548 4.57536 7.20459C4.68464 7.27753 4.7294 7.35858 4.73709 7.43656C4.74503 7.51686 4.71461 7.60386 4.6535 7.6875C4.53803 7.8455 4.32732 7.97196 4.13697 7.99553C3.99821 7.68882 3.8573 7.36971 3.71619 7.04774Z" fill="#3A3B7B"/>
<path id="Vector_12" d="M6.21031 5.84742C6.52499 5.70793 6.9148 5.68383 7.21982 5.78191C7.29664 5.80338 7.36329 5.84984 7.40837 5.91332C7.45316 5.97641 7.47383 6.05243 7.46692 6.12844C7.46647 6.17777 7.45385 6.22632 7.43011 6.27011C7.40595 6.31469 7.37096 6.35302 7.3281 6.38189C7.28523 6.41074 7.23576 6.42929 7.18387 6.43591C7.13195 6.44256 7.07916 6.4371 7.02991 6.42L7.02616 6.41871L7.02264 6.41692C6.99745 6.40427 6.97068 6.39474 6.943 6.38854L6.94125 6.38816C6.72668 6.33346 6.52428 6.4241 6.45034 6.53546C6.41508 6.58856 6.41071 6.64216 6.44008 6.69093C6.47153 6.74314 6.54867 6.80174 6.70475 6.84351C6.74768 6.85482 6.79168 6.86573 6.83632 6.87682C6.95974 6.9075 7.08801 6.93936 7.21204 6.98353L7.21251 6.9837C7.78472 7.19266 7.9978 7.62543 7.92485 8.03247C7.85269 8.43501 7.50243 8.80135 6.9757 8.88776C6.78404 8.92853 6.58458 8.92059 6.39706 8.86472C6.20907 8.80867 6.03963 8.70642 5.90555 8.56805L5.90205 8.56444C5.85973 8.51231 5.83126 8.45107 5.81864 8.38609C5.80703 8.32745 5.81315 8.26685 5.83624 8.21142C5.85919 8.15632 5.89802 8.10863 5.94812 8.07389C6.00105 8.0345 6.06484 8.01087 6.13162 8.00594C6.19818 8.00103 6.26478 8.01491 6.32322 8.04585C6.38159 8.07292 6.43589 8.10744 6.48462 8.14851L6.48554 8.14925C6.57175 8.22493 6.67606 8.24464 6.77608 8.22638C6.87756 8.20785 6.97299 8.15022 7.03437 8.07376C7.09534 7.99777 7.11982 7.90751 7.09077 7.81989C7.06154 7.73162 6.97364 7.63273 6.78052 7.55006C6.73004 7.52949 6.6777 7.5129 6.62325 7.49674C6.60856 7.49239 6.59363 7.48805 6.57852 7.48365C6.53826 7.47192 6.49684 7.45984 6.45622 7.44653C6.42824 7.43738 6.40049 7.42871 6.37301 7.4201C6.29789 7.39662 6.22465 7.37374 6.15417 7.34304C6.00078 7.29291 5.86825 7.19666 5.77632 7.06853C5.68401 6.93989 5.63756 6.78605 5.64388 6.63C5.64437 6.24969 5.89394 5.98767 6.21031 5.84742Z" fill="#3A3B7B"/>
<path id="Vector_13" d="M10.1999 5.80669C10.1389 5.77809 10.0714 5.76451 10.0036 5.76717C9.93574 5.76986 9.86965 5.78869 9.8113 5.82203C9.75331 5.85513 9.70475 5.90147 9.66996 5.95694C9.63806 6.00366 9.61598 6.0559 9.60498 6.11076C9.59397 6.16557 9.59424 6.2219 9.60574 6.27659C9.6171 6.34687 9.6297 6.41522 9.64214 6.48262C9.66274 6.59416 9.68279 6.70319 9.69601 6.81436L9.6965 6.81718C9.72661 6.99152 9.74237 7.16785 9.74378 7.34455L9.74392 7.34706C9.7542 7.53788 9.68646 7.72499 9.55521 7.86868L9.55313 7.87123C9.51042 7.92376 9.45333 7.96385 9.38821 7.98702C9.32311 8.01019 9.25259 8.01552 9.18451 8.0024C9.11643 7.98929 9.0535 7.95826 9.00275 7.91278C8.952 7.86729 8.91539 7.80898 8.89712 7.7447C8.85812 7.60922 8.83554 7.46986 8.82981 7.32943L8.89643 6.31142C8.89741 6.29813 8.89854 6.28449 8.89968 6.27071C8.90221 6.23979 8.90481 6.2083 8.90589 6.17893C8.90746 6.13571 8.90611 6.09126 8.89562 6.04919C8.88488 6.00619 8.86446 5.96528 8.82824 5.93045C8.79237 5.89597 8.74395 5.87053 8.68302 5.85321C8.57284 5.8226 8.47968 5.82357 8.40205 5.85519C8.32437 5.88681 8.27116 5.94552 8.2335 6.01334C8.19613 6.08059 8.17212 6.1602 8.15396 6.23995C8.14049 6.29912 8.12966 6.36124 8.11937 6.42037C8.11581 6.44074 8.11233 6.46074 8.10882 6.48017L8.10873 6.48075C8.05367 6.80501 8.03728 7.13425 8.05988 7.46207C8.06409 7.63924 8.10258 7.81411 8.17342 7.97776C8.25334 8.18892 8.39808 8.37186 8.58856 8.50246C8.77943 8.63333 9.00721 8.70544 9.24174 8.70924C9.47626 8.71305 9.70646 8.64838 9.90184 8.52381C10.0969 8.39941 10.2481 8.22113 10.3354 8.01255C10.4575 7.74684 10.5148 7.45787 10.503 7.16767C10.4958 6.95581 10.4838 6.74232 10.4719 6.52991C10.466 6.42571 10.4601 6.32174 10.4549 6.21841C10.4522 6.11478 10.4166 6.01442 10.3528 5.93078C10.3134 5.8779 10.2608 5.83526 10.1999 5.80669Z" fill="#3A3B7B"/>
<path id="Vector_14" d="M12.3597 7.40306C12.3536 7.41061 12.347 7.41842 12.3402 7.42654C12.2906 7.15174 12.2446 6.87704 12.1985 6.60191C12.182 6.5032 12.1654 6.40406 12.1487 6.30522L12.1468 6.29419L12.1407 6.28467C12.1292 6.26673 12.1281 6.24915 12.1281 6.21165V6.20732L12.1274 6.20303C12.1149 6.12559 12.0784 6.05353 12.0227 5.99627C11.9671 5.93917 11.8949 5.89943 11.8154 5.88218C11.7362 5.86341 11.6528 5.86754 11.576 5.89408C11.4993 5.92055 11.4325 5.96813 11.3838 6.03084C11.3434 6.07897 11.3102 6.13235 11.2854 6.18939C11.229 6.31226 11.1722 6.43544 11.1151 6.55896L11.1141 6.56109C10.9718 6.86944 10.8284 7.17987 10.6893 7.49273L10.6888 7.49374C10.6034 7.69661 10.5329 7.91036 10.4626 8.12346C10.4486 8.16599 10.4345 8.20851 10.4204 8.25091C10.395 8.31816 10.3839 8.38958 10.3877 8.46099C10.3831 8.52491 10.3991 8.58868 10.4335 8.64367C10.4685 8.69979 10.521 8.74393 10.5836 8.76992C10.6499 8.79782 10.724 8.80374 10.7943 8.78675C10.8643 8.76978 10.9266 8.73097 10.9712 8.67639C11.0281 8.60917 11.0771 8.53585 11.117 8.45817C11.2349 8.22673 11.3476 7.99246 11.4597 7.75921C11.5031 7.66899 11.5453 7.58819 11.5933 7.50019C11.5966 7.51104 11.5999 7.52162 11.6034 7.53223C11.6537 7.74469 11.7386 7.94819 11.8549 8.13527C11.8769 8.1749 11.9076 8.20954 11.9448 8.2368C11.9824 8.2644 12.0259 8.28376 12.0721 8.2936C12.1184 8.30343 12.1663 8.30348 12.2126 8.29373C12.2588 8.284 12.3024 8.26462 12.3401 8.23716L12.4146 8.18357L12.9935 7.7156L12.9593 7.92497C12.9123 8.21277 12.8657 8.49818 12.8161 8.78365C12.7837 8.91017 12.7838 9.04234 12.8163 9.16882C12.8303 9.24 12.8662 9.30554 12.9193 9.35707C12.9728 9.40902 13.0414 9.44432 13.1161 9.4584C13.1908 9.47246 13.2681 9.46467 13.3381 9.436C13.4071 9.40777 13.4658 9.36055 13.5069 9.30036C13.6023 9.18671 13.6617 9.04911 13.678 8.90395C13.7026 8.69895 13.7304 8.49116 13.7581 8.28343C13.7901 8.044 13.8221 7.80463 13.8491 7.56986L13.8492 7.56913C13.8752 7.31214 13.8878 7.05409 13.8869 6.79588C13.8926 6.71429 13.8714 6.633 13.8263 6.56353C13.7811 6.49382 13.7141 6.43962 13.6348 6.40862C13.5524 6.37266 13.4602 6.36305 13.3717 6.38122C13.2837 6.39927 13.2041 6.44376 13.1444 6.50821C13.0376 6.60299 12.9375 6.70441 12.8446 6.81181L12.8439 6.81254C12.7425 6.93385 12.6417 7.05754 12.5417 7.18044C12.4808 7.25515 12.4201 7.32968 12.3597 7.40306Z" fill="#3A3B7B"/>
</g>
<defs>
<clipPath id="clip0_212_1597">
<rect width="15.6917" height="9.68213" fill="white" transform="translate(0.434814 0.181641)"/>
</clipPath>
</defs>
</svg>
