<svg width="14" height="10" viewBox="0 0 14 10" fill="none" xmlns="http://www.w3.org/2000/svg">
<g id="Logo" clip-path="url(#clip0_212_1590)">
<path id="Vector" fill-rule="evenodd" clip-rule="evenodd" d="M3.37786 1.55537L0.0439453 4.85577C0.71079 5.51593 1.47256 6.07228 2.3031 6.50754C2.53267 7.11037 2.8925 7.67571 3.38261 8.16088C5.22652 9.98623 8.21606 9.98623 10.0599 8.16088C10.5501 7.67571 10.9099 7.11037 11.1395 6.50751C11.97 6.07228 12.7318 5.51593 13.3986 4.85577L10.0674 1.55806C10.0649 1.55559 10.0624 1.55312 10.0599 1.55066C8.21606 -0.274699 5.22652 -0.274699 3.38261 1.55066C3.38103 1.55223 3.37945 1.5538 3.37786 1.55537ZM9.74093 7.10299C8.76938 7.42758 7.74949 7.59381 6.72128 7.59381C5.69307 7.59381 4.6732 7.42758 3.70165 7.10299C3.80692 7.24125 3.92314 7.37393 4.05034 7.49986C5.52547 8.96016 7.91709 8.96016 9.39221 7.49986C9.51941 7.37393 9.63566 7.24125 9.74093 7.10299ZM4.11882 2.14558C4.36932 2.30941 4.63568 2.4496 4.91439 2.5639C5.48724 2.79879 6.10122 2.91969 6.72128 2.91969C7.34133 2.91969 7.95531 2.79879 8.52816 2.5639C8.80687 2.4496 9.07323 2.3094 9.32377 2.14557C7.86704 0.773428 5.57551 0.773432 4.11882 2.14558Z" fill="#3B4158"/>
</g>
<defs>
<clipPath id="clip0_212_1590">
<rect width="13.3547" height="9.34826" fill="white" transform="translate(0.0439453 0.181641)"/>
</clipPath>
</defs>
</svg>
