<svg width="21" height="26" viewBox="0 0 21 26" fill="none" xmlns="http://www.w3.org/2000/svg">
<g id="freepik  speech bubbles  inject 10">
<g id="freepik  speech bubble  inject 10">
<g id="freepik  speech bubble  inject 10_2">
<path id="Vector" d="M17.2676 0.812705L4.88081 7.96966C4.75279 8.05522 4.6465 8.16944 4.57036 8.30325C4.49423 8.43707 4.45034 8.58679 4.44221 8.74052V23.8748C4.44992 24.0275 4.49448 24.1761 4.57209 24.3079C4.6497 24.4396 4.75805 24.5507 4.88789 24.6315L6.64228 25.6358C6.78099 25.7038 6.93342 25.7392 7.08793 25.7392C7.24244 25.7392 7.3949 25.7038 7.53361 25.6358L19.9204 18.4717C20.0483 18.3877 20.1546 18.2748 20.2308 18.1421C20.307 18.0094 20.3509 17.8607 20.359 17.7079V2.57365C20.3507 2.42012 20.3059 2.27078 20.2284 2.13797C20.1509 2.00516 20.0429 1.89269 19.9133 1.80987L18.1943 0.805631C18.051 0.731169 17.8916 0.692888 17.7301 0.694121C17.5686 0.695353 17.4098 0.736064 17.2676 0.812705Z" fill="#333333"/>
<path id="Vector_2" d="M7.53361 25.6289C7.39446 25.6954 7.24218 25.7299 7.08793 25.7299C6.93369 25.7299 6.78143 25.6954 6.64228 25.6289L4.88789 24.6246C4.75805 24.5438 4.6497 24.4327 4.57209 24.301C4.49448 24.1692 4.44992 24.0206 4.44221 23.8679V8.73362C4.44897 8.57298 4.49777 8.41691 4.58371 8.28101L7.22234 9.79443C7.13745 9.93588 7.08793 10.0915 7.08793 9.85101V24.9853C7.08793 25.6288 7.27187 25.7774 7.53361 25.6289Z" fill="#333333"/>
<path id="Vector_3" opacity="0.4" d="M20.3519 2.5241C20.3165 2.29779 20.1396 2.22 19.9203 2.3473L7.53354 9.51133C7.40442 9.59231 7.29746 9.7041 7.22227 9.83665L4.57655 8.32322C4.65399 8.19427 4.7606 8.08527 4.88782 8.00498L17.2746 0.840942C17.4116 0.771372 17.5631 0.735107 17.7168 0.735107C17.8704 0.735107 18.0219 0.771372 18.1589 0.840942L19.9133 1.8381C20.0324 1.91306 20.1335 2.01343 20.2094 2.13202C20.2852 2.25062 20.3339 2.3845 20.3519 2.5241Z" fill="white"/>
<path id="Vector_4" d="M3.23253 19.964C2.94956 19.7943 0.834396 18.6062 0.770729 18.5496C0.718421 18.5184 0.673735 18.4759 0.639903 18.4252C0.60607 18.3746 0.583943 18.317 0.575137 18.2567C0.566331 18.1965 0.571072 18.135 0.588997 18.0768C0.606922 18.0186 0.637576 17.9651 0.678762 17.9202L4.4422 13.6062L7.08791 15.1267L3.1547 19.3275C3.11277 19.3721 3.08116 19.4254 3.06211 19.4835C3.04306 19.5416 3.03705 19.6033 3.04447 19.664C3.0519 19.7247 3.07259 19.7831 3.10509 19.8349C3.13759 19.8868 3.1811 19.9309 3.23253 19.964Z" fill="#37474F"/>
<path id="Vector_5" opacity="0.4" d="M3.23253 19.964C2.94956 19.7943 0.834396 18.6062 0.770729 18.5496C0.718421 18.5184 0.673735 18.4759 0.639903 18.4252C0.60607 18.3746 0.583943 18.317 0.575137 18.2567C0.566331 18.1965 0.571072 18.135 0.588997 18.0768C0.606922 18.0186 0.637576 17.9651 0.678762 17.9202L4.4422 13.6062L7.08791 15.1267L3.1547 19.3275C3.11277 19.3721 3.08116 19.4254 3.06211 19.4835C3.04306 19.5416 3.03705 19.6033 3.04447 19.664C3.0519 19.7247 3.07259 19.7831 3.10509 19.8349C3.13759 19.8868 3.1811 19.9309 3.23253 19.964Z" fill="white"/>
<path id="Vector_6" d="M19.9204 2.31192L7.53355 9.47595C7.40397 9.55877 7.29598 9.67124 7.21849 9.80405C7.14099 9.93686 7.09621 10.0862 7.08788 10.2397V15.1407L3.15466 19.3415C3.08926 19.3929 3.04173 19.4636 3.01878 19.5436C2.99584 19.6235 2.99865 19.7087 3.02683 19.787C3.05502 19.8652 3.10714 19.9326 3.17579 19.9796C3.24445 20.0266 3.32616 20.0508 3.40934 20.0487L7.08788 19.78V25.4023C7.08788 25.6852 7.28595 25.7983 7.53355 25.6569L19.9204 18.4929C20.0482 18.4088 20.1546 18.2959 20.2307 18.1632C20.3069 18.0306 20.3508 17.8819 20.359 17.7291V2.5948C20.359 2.28363 20.1609 2.17047 19.9204 2.31192Z" fill="#37474F"/>
</g>
<path id="freepik  X  inject 10" d="M17.4869 15.742L14.9473 13.8396L17.5647 8.83254C17.682 8.60934 17.7058 8.34871 17.6308 8.10799C17.5559 7.86727 17.3883 7.66618 17.1651 7.54896C16.9418 7.43173 16.6811 7.40797 16.4403 7.4829C16.1995 7.55784 15.9984 7.72532 15.8811 7.94853L13.4052 12.6798L11.1414 10.9683C11.042 10.8931 10.9288 10.8382 10.8081 10.8067C10.6875 10.7752 10.5619 10.7678 10.4384 10.7849C10.3149 10.802 10.1959 10.8432 10.0884 10.9062C9.98081 10.9692 9.88673 11.0528 9.81148 11.1522C9.73623 11.2516 9.6813 11.3648 9.64982 11.4854C9.61834 11.606 9.61092 11.7316 9.628 11.855C9.64508 11.9785 9.68633 12.0974 9.74937 12.2049C9.81241 12.3124 9.89601 12.4065 9.99541 12.4817L12.5138 14.3841L10.0025 19.179C9.88551 19.4032 9.86226 19.6646 9.93786 19.9059C10.0135 20.1472 10.1817 20.3487 10.4057 20.4661C10.5416 20.5352 10.6918 20.5716 10.8443 20.5722C11.0178 20.5725 11.188 20.5251 11.3365 20.4354C11.4849 20.3456 11.6059 20.2168 11.6861 20.063L14.0489 15.551L16.3197 17.2625C16.521 17.4129 16.7735 17.478 17.0225 17.4436C17.2714 17.4092 17.4968 17.278 17.6497 17.0786C17.8047 16.8795 17.8746 16.6272 17.8441 16.3767C17.8136 16.1263 17.6852 15.8981 17.4869 15.742Z" fill="#F5F7FA"/>
</g>
</g>
</svg>
