<svg width="88" height="180" viewBox="0 0 88 180" fill="none" xmlns="http://www.w3.org/2000/svg">
<g id="freepik  Character  inject 10">
<g id="freepik  character  inject 10">
<g id="freepik  Bottom  inject 10">
<path id="Vector" d="M79.4207 160.495C79.9229 161.485 80.1479 162.592 80.0715 163.699C80.022 164.668 79.4419 165.927 79.7036 168.112C79.9654 170.297 80.4676 170.99 80.7011 172.532C80.8382 173.239 80.8331 173.967 80.6861 174.673C80.5392 175.378 80.2533 176.047 79.8451 176.641C78.9396 178.112 76.9447 179.279 72.9974 179.137C69.814 179.024 68.5265 177.391 68.4558 175.516L79.4207 160.495Z" fill="#263238"/>
<path id="Vector_2" d="M78.5152 155.983C78.6131 156.39 78.677 156.804 78.7062 157.221C78.8264 157.964 79.0457 158.635 79.2226 159.392C79.2721 159.583 79.3145 159.774 79.357 159.965C79.6612 161.429 79.357 162.942 79.357 164.435C79.4791 166.198 79.7898 167.943 80.2837 169.64C80.9911 172.737 81.1114 174.809 78.402 176.952C76.9871 178.084 75.4096 178.119 73.5986 178.169C72.2059 178.217 70.8264 177.884 69.6088 177.207C68.4487 176.351 68.4628 175.63 68.4557 175.354C68.3496 172.065 69.5381 168.239 69.7786 164.958C69.8681 164.074 69.887 163.185 69.8352 162.299C69.722 161.21 69.3471 160.128 69.2268 159.031C69.1424 158.623 69.1946 158.198 69.3754 157.822C69.5583 157.614 69.7836 157.448 70.0362 157.335C70.2888 157.221 70.5628 157.163 70.8397 157.164C72.2545 156.973 73.726 156.832 75.1762 156.726C75.5172 156.661 75.8701 156.732 76.1595 156.924C76.4424 157.179 76.4495 157.631 76.5273 157.978C76.6051 158.324 76.874 158.77 77.2347 158.685C77.3541 158.646 77.4593 158.573 77.5374 158.475C77.6154 158.377 77.6627 158.258 77.6733 158.133C77.7087 157.893 77.8148 156.012 77.8077 155.736C77.836 155.75 78.3454 155.672 78.5152 155.983Z" fill="#37474F"/>
<path id="Vector_3" d="M30.6092 166.895C30.3762 167.476 30.3762 168.125 30.6092 168.706C30.8426 169.243 33.5378 170.912 37.2659 170.828C40.0246 170.739 42.7103 169.919 45.0475 168.451C46.4977 167.567 47.9832 167.454 49.8296 167.419C51.6759 167.383 53.8406 166.712 54.4702 165.884C54.707 165.074 54.707 164.212 54.4702 163.402L30.6092 166.895Z" fill="#263238"/>
<path id="Vector_4" d="M44.1066 155.884C43.9637 156.15 43.8362 156.424 43.7246 156.705C43.2676 157.715 42.5618 158.594 41.6732 159.258C40.3868 160.147 39.006 160.892 37.556 161.478C36.6364 161.889 35.6743 162.002 34.7264 162.327C33.6756 162.663 32.6632 163.109 31.7057 163.657C30.206 164.576 29.923 167.044 31.543 168.091C32.9578 168.989 36.6859 170.057 40.6898 169.095C42.8757 168.572 45.3588 166.358 48.2026 166.266C50.0065 166.202 53.4374 165.835 54.6542 164.512C55.0998 162.539 54.6117 161.98 54.2085 160.269C53.9928 159.322 53.879 158.355 53.8689 157.384C53.8689 156.874 54.2085 155.41 53.1615 155.262L53.0554 156.358C53.0554 156.358 52.8503 156.726 51.7325 156.924C51.3718 156.988 51.0888 157.461 50.8978 157.893C50.7068 158.324 50.5865 158.657 50.1904 158.65C50.0668 158.632 49.9501 158.582 49.8519 158.505C49.7538 158.428 49.6777 158.327 49.6315 158.211C49.5463 157.98 49.4777 157.744 49.4264 157.504C49.2833 157.118 49.0579 156.769 48.766 156.479C48.474 156.19 48.1224 155.968 47.7357 155.828C47.0942 155.611 46.4293 155.471 45.7549 155.41C45.2456 155.333 44.8211 155.113 44.3401 155.552C44.2481 155.652 44.1696 155.764 44.1066 155.884Z" fill="#37474F"/>
<path id="Vector_5" d="M73.1317 71.7687C73.8391 82.5678 74.2141 88.8549 76.1453 118.324C77.5665 123.368 78.4696 128.543 78.8405 133.77C79.2225 140.29 80.1493 159.937 80.1493 159.937C80.1493 159.937 74.8932 164.251 68.8307 162.256C68.8307 162.256 63.327 133.374 61.4028 124.364C59.5636 115.715 58.1487 106.259 58.1487 106.259L56.7834 118.324C56.7834 118.324 57.024 123.692 56.8542 131.705C56.7693 135.99 54.7319 159.187 54.7319 159.187C54.7319 159.187 47.3536 162.539 42.3734 158.232C42.3734 158.232 42.0127 120.616 41.9348 116.74C41.85 112.313 42.6423 67.7942 42.6423 67.7942L73.1317 71.7687Z" fill="#455A64"/>
<path id="Vector_6" d="M58.1205 106.266L54.3499 86.5141C54.3499 86.5141 48.5208 86.0049 45.3021 82.7517C45.3021 82.7517 45.8751 85.9412 53.2039 87.8507L56.8471 106.04L56.7834 118.324L58.1205 106.266Z" fill="#37474F"/>
<path id="Vector_7" d="M79.9795 156.394C77.7388 158.333 74.8571 159.372 71.8938 159.307C71.8938 159.307 76.9164 158.558 79.93 155.248L79.9795 156.394Z" fill="#37474F"/>
<path id="Vector_8" d="M54.9654 156.45C54.9654 156.45 49.8225 158.246 45.4861 156.874C45.4861 156.874 48.8321 159.123 54.8876 157.277L54.9654 156.45Z" fill="#37474F"/>
</g>
<g id="freepik  Top  inject 10">
<path id="Vector_9" d="M0.720943 31.585C0.684385 31.4161 0.612026 31.2569 0.508728 31.1183C0.328873 30.792 0.238091 30.4242 0.245542 30.0518C0.252992 29.6793 0.358411 29.3154 0.551171 28.9966C0.676229 28.8409 0.780834 28.6698 0.862434 28.4875C1.00392 28.0985 0.827064 27.66 0.862434 27.2428C0.989769 25.3828 4.35704 26.1961 5.42524 26.5356C5.7365 26.6416 7.54748 27.1084 8.25489 27.3559C8.1916 26.3353 8.29192 25.311 8.55202 24.322C9.03306 22.3913 10.6247 22.5893 10.7167 23.7704C10.8043 24.8396 11.0034 25.8967 11.3109 26.9245C11.509 27.6812 12.0183 28.4309 12.3084 29.5483C12.7258 30.9627 12.6196 31.7548 14.0345 33.0843C16.1567 35.0857 27.0509 42.469 27.0509 42.469C29.7673 40.7222 40.2795 34.2583 44.2198 32.1225C48.0328 30.0504 49.9782 31.7194 49.9782 31.7194L46.6533 43.9612C46.6533 43.9612 33.5449 50.7221 28.8194 52.7872C25.5229 54.2016 24.0656 53.4095 20.4295 50.1705C17.5432 47.4407 13.7373 43.4945 9.62728 39.8594C7.98608 38.4025 6.79763 37.66 5.63748 37.6034C5.19888 37.6034 4.76028 37.5539 4.32876 37.5115C3.35253 37.3983 2.20651 37.1579 1.73254 36.189C1.56983 35.8637 1.49202 35.4818 1.35761 35.1565C1.15246 34.6331 0.827051 34.1664 0.650197 33.643C0.504471 33.2923 0.455622 32.9088 0.508728 32.5327C0.508728 32.2286 0.763388 31.9245 0.720943 31.585Z" fill="#E8F5E9"/>
<path id="Vector_10" d="M50.6713 30.7788C47.3182 30.7788 46.0166 30.7788 41.7579 33.1975C37.4993 35.6161 29.1943 41.1111 29.1943 41.1111C29.1943 41.1111 32.9153 43.1833 33.6581 50.5382L47.0989 44.2299L50.6713 30.7788Z" fill="#455A64"/>
<path id="Vector_11" d="M6.9603 28.4802C8.07093 28.749 8.41755 29.4491 8.49537 31.012C8.53781 31.9385 8.92689 33.6287 9.98094 34.244C9.49296 34.2264 9.02181 34.0612 8.62978 33.7702C8.12044 33.3105 7.98605 33.268 7.73845 33.5651C7.55549 33.7644 7.3275 33.9172 7.07349 34.0106C7.25555 34.1928 7.37386 34.4289 7.41083 34.6838C7.44779 34.9387 7.40142 35.1986 7.27862 35.425C6.8471 36.2595 4.67535 36.4222 2.83607 35.623C2.83607 35.623 5.78598 36.3303 6.37313 35.3685C6.96029 34.4066 5.37568 33.36 4.2509 33.1266C4.2509 33.1266 7.08056 33.6004 7.44841 32.6598C7.81627 31.7192 6.61366 31.104 4.94417 30.7999C4.94417 30.7999 7.27863 31.0615 7.61819 30.2482C7.74532 29.9243 7.7485 29.5648 7.62712 29.2386C7.50574 28.9124 7.26833 28.6424 6.9603 28.4802Z" fill="#C8E6C9"/>
<path id="Vector_12" d="M27.0225 42.49C28.4944 43.4727 29.6338 44.8782 30.2907 46.5211C30.2907 46.5211 30.5242 43.4165 27.9705 41.8889L27.0225 42.49Z" fill="#C8E6C9"/>
<path id="Vector_13" d="M42.239 42.872C42.6564 34.5482 46.0095 31.1889 50.6714 30.7787L61.1482 30.0715C63.9778 30.7292 71.3349 32.1437 71.3349 32.1437C74.3839 33.056 76.5273 41.005 75.8129 45.5311C75.0984 50.0573 73.6057 53.5085 73.1884 61.1251C73.3086 68.3387 73.4147 69.7672 73.4147 72.5961C66.8995 76.7332 49.398 77.596 42.5149 73.4447C42.5149 73.4447 42.3946 66.4716 42.2532 62.0304C42.0126 54.4137 42.0975 45.7362 42.239 42.872Z" fill="#4CAF4F"/>
<path id="Vector_14" d="M44.9908 7.56103C44.5696 7.80148 44.2211 8.15112 43.982 8.57307C43.743 8.99502 43.6223 9.47365 43.6326 9.95847C43.616 10.6846 43.8235 11.3982 44.2268 12.0023C44.8368 12.7728 45.6811 13.3239 46.632 13.5723C47.0419 13.6704 47.442 13.8053 47.8276 13.9754C48.3079 14.3178 48.7576 14.7011 49.1716 15.1211C49.8154 15.6162 50.4521 16.1253 51.11 16.6062C52.4144 17.5802 53.7776 18.473 55.1917 19.2795C56.5506 20.0572 57.9701 20.7242 59.4362 21.2738C60.9854 21.8467 62.2659 21.3446 63.9212 21.4931L63.6807 25.9768C63.6807 25.9768 64.2325 24.9443 64.8621 23.7137C65.4068 22.6529 67.6917 17.2498 67.6917 17.2498C68.5831 15.1282 69.7149 12.9075 69.5805 10.5384C69.4673 8.62185 69.0853 6.93869 67.628 6.1254C67.5078 3.9189 67.0055 2.84394 65.4563 1.6629C64.3132 0.890163 63.0002 0.404927 61.6292 0.248482C60.0806 0.0696848 58.5138 0.124513 56.9815 0.411137C54.6895 0.778886 52.3974 1.36588 50.0771 1.24565C48.8372 1.11352 47.5838 1.19242 46.3703 1.47902C45.5994 1.72897 44.9301 2.22146 44.4621 2.88297C43.9942 3.54448 43.7529 4.33953 43.7741 5.14944C43.7246 5.99102 44.3966 7.37716 44.9908 7.56103Z" fill="#37474F"/>
<path id="Vector_15" d="M59.507 8.134C59.507 9.54842 60.8086 11.5498 62.7894 13.2754C62.5555 14.5843 62.5916 15.9272 62.8955 17.2217C63.0171 17.624 63.2035 18.0037 63.4473 18.3461C63.5376 18.4894 63.6588 18.6107 63.802 18.7013C63.9452 18.7918 64.1067 18.8493 64.2749 18.8695C64.7347 18.8695 64.9187 18.629 65.0602 18.2683C65.269 17.8113 65.5053 17.3673 65.7676 16.9388C65.8843 16.7558 66.0194 16.5852 66.1708 16.4296C66.8782 15.786 68.9226 15.0152 69.8777 17.1934C70.8327 19.3716 69.0429 22.455 67.3875 22.9147C64.5579 23.7138 63.9141 21.769 63.9141 21.769L63.9637 31.2032C63.1643 33.5936 58.7359 35.9203 55.1705 35.4465C51.6052 34.9726 52.737 32.8227 54.1872 31.3659L54.0033 28.0915C52.7341 28.2172 51.4537 28.1697 50.1974 27.95C48.7189 27.6671 47.5022 26.281 46.8867 24.025C45.9063 19.7268 45.7622 15.2801 46.4623 10.9275C46.9999 8.26837 47.6578 7.1227 47.9761 6.81152C47.9761 7.39144 49.0868 9.16653 51.9659 9.56257C55.0078 10.001 57.314 9.03923 59.507 8.134Z" fill="#E8F5E9"/>
<path id="Vector_16" d="M53.9891 28.1054C56.6207 27.8649 58.7571 27.5042 60.2427 26.691C61.3321 26.1181 62.2729 24.3289 62.5559 23.6924C62.5559 23.6924 62.4852 26.1393 61.0208 27.4972C58.9552 29.4137 54.0669 29.4137 54.0669 29.4137L53.9891 28.1054Z" fill="#C8E6C9"/>
<path id="Vector_17" d="M55.3686 16.0969C55.3701 16.2839 55.4265 16.4663 55.5308 16.6216C55.6351 16.7768 55.7827 16.898 55.9553 16.9701C56.1279 17.0422 56.3178 17.062 56.5016 17.0272C56.6854 16.9923 56.8549 16.9043 56.989 16.774C57.1232 16.6437 57.2162 16.4769 57.2563 16.2943C57.2965 16.1116 57.2822 15.9212 57.2151 15.7467C57.148 15.5721 57.0311 15.4211 56.8789 15.3124C56.7267 15.2037 56.5459 15.142 56.359 15.1351C56.2308 15.1332 56.1035 15.1566 55.9843 15.204C55.8651 15.2513 55.7565 15.3216 55.6645 15.4109C55.5725 15.5002 55.4991 15.6068 55.4483 15.7245C55.3975 15.8422 55.3704 15.9688 55.3686 16.0969Z" fill="#263238"/>
<path id="Vector_18" d="M55.7153 12.9782L58.0285 13.933C58.149 13.6173 58.1426 13.2672 58.0108 12.9561C57.8789 12.645 57.6318 12.397 57.3211 12.264C57.1691 12.2018 57.0061 12.171 56.8419 12.1735C56.6777 12.176 56.5157 12.2117 56.3657 12.2784C56.2156 12.3451 56.0806 12.4415 55.9689 12.5618C55.8571 12.6821 55.7708 12.8237 55.7153 12.9782Z" fill="#263238"/>
<path id="Vector_19" d="M56.6207 21.2456L53.0837 22.66C53.1675 22.8972 53.2986 23.1148 53.469 23.2999C53.6394 23.4849 53.8455 23.6335 54.075 23.7366C54.3044 23.8397 54.5524 23.8953 54.804 23.8999C55.0555 23.9044 55.3053 23.858 55.5384 23.7633C56.0076 23.5627 56.3816 23.1894 56.5831 22.7208C56.7846 22.2521 56.798 21.7239 56.6207 21.2456Z" fill="#388E3B"/>
<path id="Vector_20" d="M54.5622 23.728C54.559 23.7868 54.559 23.8459 54.5622 23.9048C54.8941 23.9583 55.2344 23.9191 55.5455 23.7916C55.9019 23.6391 56.2051 23.3844 56.4166 23.0596C56.6282 22.7348 56.7386 22.3545 56.734 21.967C56.6086 21.9389 56.4805 21.9247 56.352 21.9246C55.876 21.9283 55.4208 22.1199 55.0855 22.4577C54.7503 22.7955 54.5622 23.2521 54.5622 23.728Z" fill="#C8E6C9"/>
<path id="Vector_21" d="M47.0565 13.8764L49.3415 12.9924C49.2888 12.8424 49.2064 12.7045 49.0991 12.5871C48.9919 12.4697 48.8621 12.3751 48.7174 12.3091C48.5728 12.2431 48.4163 12.2069 48.2573 12.2028C48.0983 12.1987 47.9401 12.2267 47.7922 12.2852C47.4845 12.3998 47.2345 12.6313 47.0967 12.9294C46.9589 13.2274 46.9444 13.5678 47.0565 13.8764Z" fill="#263238"/>
<path id="Vector_22" d="M47.6437 15.8919C47.6361 16.0203 47.6541 16.149 47.6967 16.2704C47.7394 16.3918 47.8058 16.5034 47.892 16.5989C47.9783 16.6943 48.0827 16.7717 48.1992 16.8263C48.3156 16.881 48.4419 16.912 48.5704 16.9174C48.7689 16.9314 48.967 16.8857 49.1393 16.7863C49.3116 16.6869 49.4503 16.5382 49.5374 16.3594C49.6245 16.1806 49.6562 15.9798 49.6283 15.7828C49.6004 15.5859 49.5142 15.4018 49.3808 15.2542C49.2474 15.1066 49.073 15.0023 48.8798 14.9546C48.6866 14.9069 48.4836 14.9181 48.2969 14.9867C48.1101 15.0552 47.9481 15.1781 47.8317 15.3394C47.7153 15.5007 47.6498 15.6931 47.6437 15.8919Z" fill="#263238"/>
<path id="Vector_23" d="M52.7229 20.7788L49.2 20.114L52.5248 14.4846L52.7229 20.7788Z" fill="#C8E6C9"/>
<path id="Vector_24" d="M71.9433 32.3135C76.3505 33.0773 79.0175 34.4917 80.1493 37.9712C81.7552 42.9216 86.2472 56.9456 87.174 61.9314C87.7399 64.9936 88.6242 66.9314 86.028 68.9469C79.8411 73.4222 73.3817 77.5084 66.6873 81.1817C60.8016 84.2651 51.9165 84.8733 51.9165 84.8733L58.361 80.9766L59.507 78.7913L76.7325 63.5368L70.2243 44.3148C70.2243 44.3148 68.5831 34.4351 71.9433 32.3135Z" fill="#E8F5E9"/>
<path id="Vector_25" d="M76.7325 63.5368C78.1324 62.8158 79.6852 62.4422 81.26 62.4477C81.26 62.4477 79.7319 61.1323 76.3576 62.4477L76.7325 63.5368Z" fill="#C8E6C9"/>
<path id="Vector_26" d="M71.3349 32.1436C73.351 32.5184 75.5794 32.7376 77.6309 34.0389C79.6824 35.3401 80.0573 36.9172 81.6348 41.7758C83.2124 46.6343 85.0728 53.7983 85.0728 53.7983C85.0728 53.7983 81.2104 57.0656 74.5607 57.1576C74.5607 57.1576 71.2854 48.0699 70.4789 46.0473C69.6725 44.0247 67.6422 37.5042 71.3349 32.1436Z" fill="#455A64"/>
<path id="Vector_27" d="M64.2325 75.7997V76.4079C64.2392 76.7078 64.1669 77.0041 64.0228 77.2673C63.8788 77.5304 63.6681 77.7511 63.4119 77.9072L47.3537 87.6525C47.0934 87.7988 46.7998 87.8756 46.5012 87.8756C46.2026 87.8756 45.9091 87.7988 45.6488 87.6525L15.3998 71.0897C15.1383 70.943 14.9194 70.731 14.7644 70.4744C14.6095 70.2178 14.5237 69.9254 14.5155 69.6258V69.2156L46.4835 86.7402L64.2325 75.7997Z" fill="#4CAF4F"/>
<g id="Group" opacity="0.5">
<path id="Vector_28" opacity="0.5" d="M64.2325 75.7997V76.4079C64.2392 76.7078 64.1669 77.0041 64.0228 77.2673C63.8788 77.5304 63.6681 77.7511 63.4119 77.9072L47.3537 87.6525C47.0934 87.7988 46.7998 87.8756 46.5012 87.8756C46.2026 87.8756 45.9091 87.7988 45.6488 87.6525L15.3998 71.0897C15.1383 70.943 14.9194 70.731 14.7644 70.4744C14.6095 70.2178 14.5237 69.9254 14.5155 69.6258V69.2156L46.4835 86.7402L64.2325 75.7997Z" fill="white"/>
</g>
<g id="Group_2" opacity="0.1">
<path id="Vector_29" opacity="0.1" d="M64.2325 75.7997V76.4079C64.2392 76.7078 64.1669 77.0041 64.0228 77.2673C63.8788 77.5304 63.6681 77.7511 63.4119 77.9072L47.3537 87.6525C47.0934 87.7988 46.7998 87.8756 46.5012 87.8756C46.2026 87.8756 45.9091 87.7988 45.6488 87.6525L15.3998 71.0897C15.1383 70.943 14.9194 70.731 14.7644 70.4744C14.6095 70.2178 14.5237 69.9254 14.5155 69.6258V69.2156L46.4835 86.7402L64.2325 75.7997Z" fill="#103E13"/>
</g>
<path id="Vector_30" d="M14.5084 69.2157L31.9886 58.6075C32.1437 58.5188 32.3193 58.4722 32.498 58.4722C32.6766 58.4722 32.8522 58.5188 33.0073 58.6075L64.1335 75.6654C64.1672 75.6855 64.1951 75.714 64.2145 75.7481C64.2339 75.7821 64.2441 75.8207 64.2441 75.8599C64.2441 75.8991 64.2339 75.9377 64.2145 75.9718C64.1951 76.0059 64.1672 76.0343 64.1335 76.0544L46.4835 86.7686L14.5084 69.2157Z" fill="#4CAF4F"/>
<g id="Group_3" opacity="0.85">
<path id="Vector_31" opacity="0.85" d="M14.5084 69.2157L31.9886 58.6075C32.1437 58.5188 32.3193 58.4722 32.498 58.4722C32.6766 58.4722 32.8522 58.5188 33.0073 58.6075L64.1335 75.6654C64.1672 75.6855 64.1951 75.714 64.2145 75.7481C64.2339 75.7821 64.2441 75.8207 64.2441 75.8599C64.2441 75.8991 64.2339 75.9377 64.2145 75.9718C64.1951 76.0059 64.1672 76.0343 64.1335 76.0544L46.4835 86.7686L14.5084 69.2157Z" fill="white"/>
</g>
<path id="Vector_32" d="M46.3279 85.0783L55.7577 79.3569L27.7583 64.0105L18.2789 69.7035L46.3279 85.0783Z" fill="#4CAF4F"/>
<g id="Group_4" opacity="0.6">
<path id="Vector_33" opacity="0.6" d="M46.3279 85.0783L55.7577 79.3569L27.7583 64.0105L18.2789 69.7035L46.3279 85.0783Z" fill="white"/>
</g>
<path id="Vector_34" d="M50.9685 69.8096L50.7916 69.9157L46.1722 72.7233L37.7399 68.0982L37.563 68.0062L42.3593 65.0925L50.9685 69.8096Z" fill="#4CAF4F"/>
<path id="Vector_35" d="M50.7917 69.9157L46.1723 72.7233L37.7399 68.0982L42.3664 65.2976L50.7917 69.9157Z" fill="#4CAF4F"/>
<g id="Group_5" opacity="0.6">
<path id="Vector_36" opacity="0.6" d="M50.7917 69.9157L46.1723 72.7233L37.7399 68.0982L42.3664 65.2976L50.7917 69.9157Z" fill="white"/>
</g>
<path id="Vector_37" d="M46.4765 86.7402V87.8718C46.1779 87.8815 45.8822 87.8107 45.6205 87.6667L15.3998 71.0897C15.1383 70.943 14.9194 70.731 14.7644 70.4744C14.6095 70.2178 14.5237 69.9254 14.5155 69.6258V69.2156L46.4765 86.7402Z" fill="#4CAF4F"/>
<g id="Group_6" opacity="0.03">
<path id="Vector_38" opacity="0.03" d="M46.4765 86.7402V87.8718C46.1779 87.8815 45.8822 87.8107 45.6205 87.6667L15.3998 71.0897C15.1383 70.943 14.9194 70.731 14.7644 70.4744C14.6095 70.2178 14.5237 69.9254 14.5155 69.6258V69.2156L46.4765 86.7402Z" fill="white"/>
</g>
<g id="Group_7" opacity="0.2">
<path id="Vector_39" opacity="0.2" d="M46.4765 86.7402V87.8718C46.1779 87.8815 45.8822 87.8107 45.6205 87.6667L15.3998 71.0897C15.1383 70.943 14.9194 70.731 14.7644 70.4744C14.6095 70.2178 14.5237 69.9254 14.5155 69.6258V69.2156L46.4765 86.7402Z" fill="#103E13"/>
</g>
<path id="Vector_40" d="M46.0025 87.002C45.7227 87.1188 45.4201 87.1706 45.1174 87.1535C44.8147 87.1363 44.5199 87.0507 44.2552 86.903L14.1477 70.3967C13.8841 70.2506 13.6561 70.048 13.48 69.8035C13.3039 69.5589 13.184 69.2785 13.129 68.9823L9.45044 49.6472C9.44037 49.5366 9.44037 49.4253 9.45044 49.3148C9.44356 49.0476 9.49007 48.7818 9.58725 48.5329C9.68443 48.2839 9.83032 48.0569 10.0164 47.865L41.2699 65.0219C41.4636 65.1259 41.6315 65.2721 41.7612 65.4495C41.891 65.627 41.9793 65.8313 42.0197 66.0473L46.0025 87.002Z" fill="#4CAF4F"/>
<g id="Group_8" opacity="0.4">
<path id="Vector_41" opacity="0.4" d="M46.0025 87.002C45.7227 87.1188 45.4201 87.1706 45.1174 87.1535C44.8147 87.1363 44.5199 87.0507 44.2552 86.903L14.1477 70.3967C13.8841 70.2506 13.6561 70.048 13.48 69.8035C13.3039 69.5589 13.184 69.2785 13.129 68.9823L9.45044 49.6472C9.44037 49.5366 9.44037 49.4253 9.45044 49.3148C9.44356 49.0476 9.49007 48.7818 9.58725 48.5329C9.68443 48.2839 9.83032 48.0569 10.0164 47.865L41.2699 65.0219C41.4636 65.1259 41.6315 65.2721 41.7612 65.4495C41.891 65.627 41.9793 65.8313 42.0197 66.0473L46.0025 87.002Z" fill="white"/>
</g>
<path id="Vector_42" d="M46.4764 86.7402L46.2783 86.8604C46.1901 86.9146 46.0979 86.9618 46.0025 87.0019L42.0197 66.0756C41.9793 65.8595 41.891 65.6552 41.7612 65.4777C41.6315 65.3003 41.4636 65.1541 41.2699 65.0501L9.98099 47.8932C10.0991 47.766 10.2349 47.6564 10.3842 47.5679L41.7438 64.7531C41.9362 64.8606 42.1029 65.0086 42.2323 65.1869C42.3618 65.3652 42.451 65.5695 42.4937 65.7856L46.4764 86.7402Z" fill="#4CAF4F"/>
<g id="Group_9" opacity="0.6">
<path id="Vector_43" opacity="0.6" d="M46.4764 86.7402L46.2783 86.8604C46.1901 86.9146 46.0979 86.9618 46.0025 87.0019L42.0197 66.0756C41.9793 65.8595 41.891 65.6552 41.7612 65.4777C41.6315 65.3003 41.4636 65.1541 41.2699 65.0501L9.98099 47.8932C10.0991 47.766 10.2349 47.6564 10.3842 47.5679L41.7438 64.7531C41.9362 64.8606 42.1029 65.0086 42.2323 65.1869C42.3618 65.3652 42.451 65.5695 42.4937 65.7856L46.4764 86.7402Z" fill="white"/>
</g>
<path id="Vector_44" d="M41.7297 65.4391L42.1966 65.1562C42.3444 65.3394 42.4462 65.5552 42.4937 65.7857L46.4765 86.7403L46.2784 86.8605C46.1902 86.9146 46.098 86.9619 46.0025 87.0019L42.0198 66.0756C41.9749 65.8435 41.8755 65.6253 41.7297 65.4391Z" fill="#4CAF4F"/>
<path id="Vector_45" opacity="0.5" d="M41.7297 65.4391L42.1966 65.1562C42.3444 65.3394 42.4462 65.5552 42.4937 65.7857L46.4765 86.7403L46.2784 86.8605C46.1902 86.9146 46.098 86.9619 46.0025 87.0019L42.0198 66.0756C41.9749 65.8435 41.8755 65.6253 41.7297 65.4391Z" fill="white"/>
<path id="Vector_46" opacity="0.1" d="M41.7297 65.4391L42.1966 65.1562C42.3444 65.3394 42.4462 65.5552 42.4937 65.7857L46.4765 86.7403L46.2784 86.8605C46.1902 86.9146 46.098 86.9619 46.0025 87.0019L42.0198 66.0756C41.9749 65.8435 41.8755 65.6253 41.7297 65.4391Z" fill="#103E13"/>
<path id="Vector_47" d="M28.8619 69.4561C28.3589 67.8435 27.2545 66.4862 25.7776 65.6655C24.3274 64.8734 23.3441 65.2695 23.5917 66.5707C23.8393 67.872 25.2187 69.5551 26.676 70.3543C28.1333 71.1534 29.1095 70.7503 28.8619 69.4561Z" fill="#455A64"/>
<path id="Vector_48" d="M64.8196 74.0884C63.136 75.2694 60.8652 74.3147 58.6297 74.5834C56.3943 74.8522 54.4843 75.4038 52.6875 75.3543C50.8907 75.3048 50.0135 75.6654 51.2727 77.1011C52.5319 78.5367 56.1326 77.7093 57.1088 78.1478C57.3868 78.3101 57.6243 78.5335 57.8032 78.8011C57.982 79.0687 58.0977 79.3735 58.1413 79.6924C58.1849 80.0113 58.1554 80.336 58.055 80.6418C57.9545 80.9476 57.7858 81.2265 57.5616 81.4575C56.5075 82.681 63.5604 80.3189 64.5013 78.8691C65.4421 77.4193 66.093 74.2723 64.8196 74.0884Z" fill="#E8F5E9"/>
</g>
</g>
</g>
</svg>
