<svg width="17" height="17" viewBox="0 0 17 17" fill="none" xmlns="http://www.w3.org/2000/svg">
<g id="Icon">
<g id="Group 1">
<path id="Vector" d="M9.51967 6.84442C9.4155 6.84442 9.33081 6.75987 9.33081 6.65556V6.33461C9.33081 6.23044 9.41536 6.14575 9.51967 6.14575C9.62384 6.14575 9.70853 6.2303 9.70853 6.33461V6.65556C9.70853 6.75987 9.62385 6.84442 9.51967 6.84442Z" fill="#103E13"/>
<path id="Vector_2" d="M8.72572 6.84442C8.62155 6.84442 8.53687 6.75987 8.53687 6.65556V6.33461C8.53687 6.23044 8.62142 6.14575 8.72572 6.14575C8.8299 6.14575 8.91458 6.2303 8.91458 6.33461V6.65556C8.91445 6.75987 8.83003 6.84442 8.72572 6.84442Z" fill="#103E13"/>
<path id="Vector_3" d="M7.93178 6.84442C7.82761 6.84442 7.74292 6.75987 7.74292 6.65556V6.33461C7.74292 6.23044 7.82747 6.14575 7.93178 6.14575C8.03595 6.14575 8.12064 6.2303 8.12064 6.33461V6.65556C8.12064 6.75987 8.03609 6.84442 7.93178 6.84442Z" fill="#103E13"/>
<path id="Vector_4" d="M9.51967 8.15704C9.4155 8.15704 9.33081 8.07249 9.33081 7.96818V7.64736C9.33081 7.54318 9.41536 7.4585 9.51967 7.4585C9.62384 7.4585 9.70853 7.54305 9.70853 7.64736V7.96818C9.70853 8.07249 9.62385 8.15704 9.51967 8.15704Z" fill="#103E13"/>
<path id="Vector_5" d="M8.72572 8.15704C8.62155 8.15704 8.53687 8.07249 8.53687 7.96818V7.64736C8.53687 7.54318 8.62142 7.4585 8.72572 7.4585C8.8299 7.4585 8.91458 7.54305 8.91458 7.64736V7.96818C8.91445 8.07249 8.83003 8.15704 8.72572 8.15704Z" fill="#103E13"/>
<path id="Vector_6" d="M7.93178 8.15704C7.82761 8.15704 7.74292 8.07249 7.74292 7.96818V7.64736C7.74292 7.54318 7.82747 7.4585 7.93178 7.4585C8.03595 7.4585 8.12064 7.54305 8.12064 7.64736V7.96818C8.12064 8.07249 8.03609 8.15704 7.93178 8.15704Z" fill="#103E13"/>
<path id="Vector_7" d="M9.51967 9.46967C9.4155 9.46967 9.33081 9.38512 9.33081 9.28081V8.95986C9.33081 8.85568 9.41536 8.771 9.51967 8.771C9.62384 8.771 9.70853 8.85555 9.70853 8.95986V9.28081C9.70853 9.38512 9.62385 9.46967 9.51967 9.46967Z" fill="#103E13"/>
<path id="Vector_8" d="M8.72572 9.46967C8.62155 9.46967 8.53687 9.38512 8.53687 9.28081V8.95986C8.53687 8.85568 8.62142 8.771 8.72572 8.771C8.8299 8.771 8.91458 8.85555 8.91458 8.95986V9.28081C8.91445 9.38512 8.83003 9.46967 8.72572 9.46967Z" fill="#103E13"/>
<path id="Vector_9" d="M7.93178 9.46967C7.82761 9.46967 7.74292 9.38512 7.74292 9.28081V8.95986C7.74292 8.85568 7.82747 8.771 7.93178 8.771C8.03595 8.771 8.12064 8.85555 8.12064 8.95986V9.28081C8.12064 9.38512 8.03609 9.46967 7.93178 9.46967Z" fill="#103E13"/>
<path id="Vector_10" d="M9.51967 10.7817C9.4155 10.7817 9.33081 10.6971 9.33081 10.5928V10.2719C9.33081 10.1677 9.41536 10.083 9.51967 10.083C9.62384 10.083 9.70853 10.1676 9.70853 10.2719V10.5928C9.70853 10.6971 9.62385 10.7817 9.51967 10.7817Z" fill="#103E13"/>
<path id="Vector_11" d="M8.72572 10.7817C8.62155 10.7817 8.53687 10.6971 8.53687 10.5928V10.2719C8.53687 10.1677 8.62142 10.083 8.72572 10.083C8.8299 10.083 8.91458 10.1676 8.91458 10.2719V10.5928C8.91445 10.6971 8.83003 10.7817 8.72572 10.7817Z" fill="#103E13"/>
<path id="Vector_12" d="M7.93178 10.7817C7.82761 10.7817 7.74292 10.6971 7.74292 10.5928V10.2719C7.74292 10.1677 7.82747 10.083 7.93178 10.083C8.03595 10.083 8.12064 10.1676 8.12064 10.2719V10.5928C8.12064 10.6971 8.03609 10.7817 7.93178 10.7817Z" fill="#103E13"/>
<path id="Vector_13" d="M9.51967 12.0943C9.4155 12.0943 9.33081 12.0097 9.33081 11.9054V11.5846C9.33081 11.4804 9.41536 11.3958 9.51967 11.3958C9.62384 11.3958 9.70853 11.4803 9.70853 11.5846V11.9054C9.70853 12.0096 9.62385 12.0943 9.51967 12.0943Z" fill="#103E13"/>
<path id="Vector_14" d="M8.72572 12.0943C8.62155 12.0943 8.53687 12.0097 8.53687 11.9054V11.5846C8.53687 11.4804 8.62142 11.3958 8.72572 11.3958C8.8299 11.3958 8.91458 11.4803 8.91458 11.5846V11.9054C8.91445 12.0096 8.83003 12.0943 8.72572 12.0943Z" fill="#103E13"/>
<path id="Vector_15" d="M7.93178 12.0943C7.82761 12.0943 7.74292 12.0097 7.74292 11.9054L7.74305 11.5846C7.74305 11.4804 7.8276 11.3958 7.93191 11.3958C8.03609 11.3958 8.12077 11.4803 8.12077 11.5846V11.9054C8.12064 12.0096 8.03609 12.0943 7.93178 12.0943Z" fill="#103E13"/>
<path id="Vector_16" d="M2.53654 13.4004C2.53654 13.5046 2.62109 13.5892 2.7254 13.5892H14.2263C14.3305 13.5892 14.4152 13.5047 14.4152 13.4004C14.4152 13.2962 14.3307 13.2115 14.2263 13.2115H13.8772V7.7891C13.8772 7.68493 13.7927 7.60024 13.6884 7.60024L10.6049 7.60037V3.69109C10.6049 3.62497 10.5704 3.56387 10.514 3.52962C10.4578 3.49525 10.3874 3.49314 10.329 3.52356L6.82324 5.34881C6.76068 5.38134 6.7217 5.44587 6.7217 5.51633V8.93101H3.32894C3.22476 8.93101 3.14008 9.01556 3.14008 9.11987V13.2116H2.72497C2.6208 13.2114 2.53638 13.296 2.53638 13.4003L2.53654 13.4004ZM10.6049 10.4607H13.4997V13.2117L10.6049 13.2115V10.4607ZM10.6049 9.14832H13.4997V10.0831L10.6049 10.083V9.14832ZM10.6049 7.97789H13.4997V8.77087H10.6049V7.97789ZM7.09922 5.63101L10.2271 4.00239V13.2114H7.09922V5.63101ZM4.45139 11.7031C4.45139 11.3112 4.76194 10.9922 5.14374 10.9922C5.52553 10.9922 5.83622 11.311 5.83622 11.7031V13.2116H4.45139V11.7031ZM3.51778 9.30867H6.72165V13.2115H6.21393V11.7031C6.21393 11.1029 5.73402 10.6146 5.14374 10.6146C4.55372 10.6146 4.07382 11.1028 4.07382 11.7031V13.2115H3.51778V9.30867Z" fill="#103E13"/>
</g>
</g>
</svg>
