<svg width="17" height="17" viewBox="0 0 17 17" fill="none" xmlns="http://www.w3.org/2000/svg">
<g id="Icon">
<g id="Group 2">
<path id="Vector" d="M10.3797 8.39133C10.2993 8.39133 10.2246 8.36923 10.1583 8.33368V8.33462C10.1583 8.4611 10.1092 8.57988 10.02 8.66884C9.93078 8.75804 9.81209 8.8072 9.68575 8.8072C9.60419 8.8072 9.5286 8.78455 9.46157 8.74805C9.45481 8.86376 9.40856 8.97191 9.32605 9.05451C9.23685 9.14371 9.11816 9.19287 8.99174 9.19287C8.74058 9.19287 8.53661 8.99544 8.52191 8.74798C8.4442 8.78998 8.35634 8.812 8.26572 8.80618C8.01864 8.78998 7.82515 8.5765 7.82515 8.32007V6.19446L7.58311 6.61378C7.49092 6.77416 7.31836 6.87374 7.13256 6.87374C7.04202 6.87374 6.95259 6.84999 6.87338 6.8046C6.77474 6.74742 6.70419 6.65562 6.67484 6.54581C6.64535 6.43592 6.66061 6.321 6.71763 6.22251C6.71771 6.22251 7.50956 4.85126 7.55787 4.76703C7.56361 4.75436 7.57998 4.71763 7.5939 4.68632C7.60719 4.65643 7.6186 4.62576 7.62953 4.59492C7.86833 3.92075 8.45962 3.50197 9.17273 3.50197C10.0988 3.50197 10.8522 4.31891 10.8522 5.32308L10.8522 7.91868C10.8522 8.045 10.8032 8.1637 10.714 8.25298C10.6248 8.34218 10.5061 8.39134 10.3797 8.39134L10.3797 8.39133ZM9.17274 3.75309C8.55998 3.75309 8.07159 4.09919 7.86622 4.6789C7.85309 4.71572 7.8394 4.75253 7.82343 4.7884C7.7771 4.8923 7.7771 4.8923 7.76404 4.90725L7.76231 4.90575C7.69766 5.02775 7.50557 5.3604 6.93507 6.34819C6.91163 6.3887 6.90541 6.43574 6.91737 6.48073C6.92948 6.52572 6.95851 6.56364 6.9987 6.58684C7.12345 6.6585 7.2943 6.61225 7.36541 6.48836L7.842 5.66323C7.87047 5.61407 7.92805 5.58992 7.98327 5.60486C8.03817 5.61957 8.07632 5.66936 8.07632 5.72615V8.32014C8.07632 8.44253 8.16866 8.54816 8.28218 8.55564C8.34762 8.5591 8.40866 8.53715 8.45452 8.49137C8.49621 8.44968 8.51917 8.39415 8.51917 8.33476V6.63826C8.51917 6.56889 8.57541 6.51264 8.64479 6.51264C8.71417 6.51264 8.77041 6.56881 8.77041 6.63826L8.77033 8.72038C8.77033 8.84246 8.86967 8.9418 8.99175 8.9418C9.05106 8.9418 9.10675 8.91883 9.14852 8.87714C9.19021 8.83538 9.21317 8.77969 9.21317 8.72038V6.63826C9.21317 6.56888 9.26934 6.51264 9.33879 6.51264C9.40817 6.51264 9.46441 6.56881 9.46441 6.63826L9.46433 8.31525V8.33476C9.46433 8.45676 9.56368 8.5561 9.68583 8.5561C9.74506 8.5561 9.80059 8.53305 9.8426 8.4912C9.88429 8.44959 9.90725 8.39406 9.90725 8.33467V6.63817C9.90725 6.5688 9.96342 6.51256 10.0329 6.51256C10.1022 6.51256 10.1585 6.56872 10.1585 6.63817L10.1583 7.91873C10.1583 8.04089 10.2577 8.14024 10.3797 8.14024C10.4391 8.14024 10.4946 8.11719 10.5363 8.07558C10.5781 8.03373 10.601 7.97804 10.601 7.91873L10.6011 5.32314C10.6011 4.45751 9.96035 3.75311 9.17273 3.75311L9.17274 3.75309Z" fill="#103E13"/>
<path id="Vector_2" d="M5.44427 10.1954L7.26708 9.10192C7.48685 8.96993 7.76963 9.02601 7.91058 9.22966C7.96203 9.30383 7.9883 9.39028 7.99239 9.4783C8.06035 9.44283 8.13429 9.42356 8.20956 9.42356C8.2481 9.42356 8.2868 9.42836 8.32503 9.43787C8.4475 9.46847 8.5507 9.54501 8.6156 9.65323C8.68057 9.76162 8.69953 9.88865 8.66893 10.011C8.64069 10.1242 8.57187 10.2194 8.47614 10.2848C8.54308 10.3243 8.60081 10.3782 8.64187 10.4468C8.70685 10.5551 8.7258 10.6821 8.69528 10.8046C8.66468 10.9269 8.58815 11.0301 8.47976 11.0951L8.47913 11.0955C8.54489 11.1349 8.6016 11.1883 8.64219 11.2558C8.70724 11.3642 8.7262 11.4913 8.6956 11.6137C8.66492 11.7361 8.58839 11.8393 8.48016 11.9043L6.25447 13.2395C5.83907 13.4886 5.35886 13.5746 4.90249 13.4814C4.44202 13.3873 4.06068 13.1227 3.82881 12.7361C3.46186 12.1246 3.51685 11.402 3.97204 10.8505C3.99289 10.8253 4.01342 10.7997 4.03206 10.7731C4.0518 10.745 4.07485 10.712 4.08272 10.7007C4.12983 10.6165 4.89865 9.23133 4.89857 9.23149C4.9762 9.0914 5.12172 9.01211 5.2718 9.01219C5.3418 9.01219 5.41283 9.02941 5.47836 9.06575C5.55749 9.10996 5.62395 9.17438 5.67044 9.25202C5.76601 9.4113 5.76939 9.61063 5.67941 9.77194L5.44427 10.1954ZM5.4552 9.38115C5.43082 9.34048 5.39731 9.30808 5.35632 9.28511C5.27161 9.23823 5.16495 9.26875 5.11831 9.35315C4.56818 10.3442 4.38065 10.682 4.30828 10.8022L4.30993 10.8026C4.30387 10.8227 4.30387 10.8227 4.23765 10.9173C4.21515 10.9494 4.19069 10.9801 4.16575 11.0104C3.77434 11.4846 3.72889 12.0814 4.04407 12.6069C4.2393 12.9324 4.56196 13.1556 4.95265 13.2353C5.34758 13.3156 5.76385 13.2409 6.12513 13.0241L8.35102 11.6888C8.40184 11.6584 8.43771 11.61 8.45202 11.5527C8.46634 11.4954 8.45745 11.4359 8.42693 11.3851C8.36416 11.2804 8.22785 11.2461 8.12323 11.3091L7.02517 11.9678C6.9657 12.0036 6.88846 11.9844 6.85283 11.9248C6.81712 11.8654 6.83639 11.7882 6.89585 11.7525L7.994 11.0937L8.35063 10.8798C8.40145 10.8492 8.43739 10.8009 8.45171 10.7437C8.46602 10.6863 8.45714 10.6267 8.42662 10.576C8.36377 10.4713 8.22745 10.4372 8.12292 10.5L6.66814 11.3727C6.60851 11.4085 6.53151 11.3892 6.4958 11.3297C6.46009 11.2702 6.47943 11.1931 6.53882 11.1574L8.32429 10.0863C8.3751 10.0558 8.41097 10.0075 8.42528 9.95011C8.4396 9.89285 8.43071 9.83331 8.40027 9.78249C8.36983 9.73176 8.32145 9.69589 8.26411 9.68158C8.20645 9.66726 8.14715 9.67615 8.09649 9.70651L7.76597 9.90481C7.76589 9.90481 7.76589 9.90489 7.76581 9.90489H7.76573L6.31103 10.7776C6.25141 10.8135 6.17432 10.7941 6.13869 10.7346C6.10298 10.6751 6.12233 10.5979 6.18172 10.5622L7.6365 9.68952C7.68731 9.659 7.72326 9.61063 7.73758 9.55344C7.75331 9.49067 7.74135 9.42649 7.70407 9.37269C7.63941 9.27916 7.50113 9.2543 7.39628 9.31731L5.172 10.6517C5.12331 10.6808 5.06094 10.6737 5.02011 10.6343C4.97921 10.5948 4.97001 10.5327 4.99754 10.4831L5.46005 9.6498C5.50646 9.5665 5.50465 9.46362 5.45517 9.38118L5.4552 9.38115Z" fill="#103E13"/>
<path id="Vector_3" d="M14.1547 12.7359C13.9229 13.1225 13.5416 13.3872 13.0811 13.4812C12.6246 13.5743 12.1446 13.4885 11.7291 13.2394L9.50319 11.9041C9.39488 11.8391 9.31827 11.7359 9.28759 11.6133C9.25715 11.491 9.27619 11.364 9.34108 11.2557C9.38159 11.1881 9.43838 11.1348 9.50422 11.0954L9.50359 11.095C9.39527 11.03 9.31866 10.9268 9.28815 10.8044C9.25747 10.682 9.2765 10.5549 9.34148 10.4465C9.38332 10.3769 9.44066 10.3225 9.50611 10.2839C9.41109 10.2185 9.34266 10.1235 9.3145 10.0109C9.28382 9.88843 9.30286 9.76139 9.36783 9.65316C9.43272 9.54484 9.536 9.46831 9.6584 9.43772C9.69662 9.42812 9.7354 9.4234 9.77379 9.4234C9.84914 9.42348 9.92308 9.44259 9.99104 9.47815C9.99521 9.39013 10.0214 9.30368 10.0728 9.2295C10.2139 9.02602 10.4964 8.9697 10.7165 9.10176L12.5393 10.1951L12.3043 9.77192C12.2142 9.61036 12.2175 9.41104 12.313 9.25168C12.3596 9.17412 12.4262 9.1097 12.5057 9.0651C12.571 9.02892 12.6418 9.01177 12.7117 9.01177C12.8617 9.01185 13.0074 9.09098 13.0849 9.23108C13.3552 9.71806 13.8652 10.6365 13.9011 10.7006C13.9087 10.7117 13.9317 10.7447 13.9515 10.7728C13.9703 10.7995 13.9906 10.8249 14.0116 10.8503C14.4667 11.402 14.5216 12.1244 14.1547 12.7359L14.1547 12.7359ZM13.8178 11.0103C13.7928 10.9801 13.7682 10.9491 13.7459 10.9173C13.6779 10.8209 13.6762 10.8183 13.6711 10.7931C13.5916 10.6617 13.3978 10.3127 12.8651 9.35293C12.8184 9.26868 12.7122 9.23793 12.6276 9.28465C12.586 9.30793 12.5526 9.34042 12.5282 9.38109C12.4788 9.46344 12.4769 9.56633 12.5235 9.64987L12.9859 10.4829C13.0135 10.5327 13.0043 10.5946 12.9635 10.6341C12.9227 10.6737 12.8604 10.6806 12.8115 10.6515L10.5872 9.31714C10.4824 9.25429 10.3442 9.27891 10.2794 9.37251C10.2421 9.42631 10.2302 9.4905 10.2458 9.55319C10.2601 9.61046 10.296 9.65875 10.3469 9.68927C10.3471 9.68935 10.3472 9.68951 10.3473 9.68958L11.8016 10.5621C11.8611 10.5978 11.8804 10.6749 11.8447 10.7344C11.809 10.7938 11.732 10.8132 11.6723 10.7774L9.88687 9.70634C9.83621 9.67598 9.77659 9.66702 9.71933 9.68141C9.66191 9.69572 9.61361 9.73159 9.58317 9.78248C9.55265 9.83322 9.54384 9.89276 9.558 9.95003C9.57232 10.0073 9.60826 10.0557 9.65907 10.0862L10.0065 10.2946L11.4445 11.1573C11.5039 11.193 11.5232 11.2701 11.4875 11.3296C11.4518 11.389 11.3748 11.4084 11.3151 11.3727L9.86052 10.4999C9.75591 10.437 9.61967 10.4711 9.55674 10.5759C9.52622 10.6267 9.51741 10.6863 9.53157 10.7435C9.54589 10.8008 9.58184 10.8491 9.63273 10.8797L9.98936 11.0936L11.0873 11.7524C11.1468 11.7881 11.1661 11.8652 11.1304 11.9248C11.0947 11.9841 11.0177 12.0036 10.958 11.9678L9.86005 11.309C9.80939 11.2786 9.75001 11.2697 9.69243 11.2841C9.63516 11.2984 9.58671 11.3343 9.55627 11.385C9.52583 11.4358 9.51694 11.4954 9.5311 11.5526C9.54542 11.6099 9.58136 11.6582 9.63226 11.6888L11.8581 13.0241C12.2194 13.2408 12.6359 13.3158 13.0306 13.2353C13.4212 13.1555 13.7439 12.9323 13.9391 12.6069C14.2546 12.0813 14.2092 11.4844 13.8179 11.0103L13.8178 11.0103Z" fill="#103E13"/>
</g>
</g>
</svg>
