<svg width="20" height="11" viewBox="0 0 20 11" fill="none" xmlns="http://www.w3.org/2000/svg">
<g id="Logo" clip-path="url(#clip0_212_1128)">
<path id="Vector" d="M19.299 4.26073C19.3009 4.2468 19.3009 4.23273 19.299 4.21881C19.3008 4.20747 19.3008 4.1959 19.299 4.18453L19.1629 3.20541C19.1433 3.08828 19.0908 2.97879 19.0114 2.8892L18.9881 2.86253L18.9453 2.82063L16.5904 0.831924L16.6564 0.896696C16.6024 0.8333 16.5346 0.782592 16.4579 0.748307C16.3812 0.714021 16.2977 0.69703 16.2134 0.698586H15.4984C15.3821 0.696327 15.2685 0.732569 15.1758 0.801451C15.0785 0.732984 14.9614 0.696928 14.8416 0.698586H14.1266C14.0328 0.697094 13.9403 0.719912 13.8584 0.764735C13.7765 0.809558 13.7082 0.874795 13.6603 0.953839C13.5864 1.06674 13.5587 1.20276 13.5826 1.33482L13.6719 1.952C13.6127 1.91909 13.5457 1.90202 13.4776 1.90248H10.0151C9.89092 1.90324 9.76955 1.93894 9.66539 2.00534C9.56468 2.06714 9.48383 2.15564 9.43223 2.26059L9.16409 2.03581C9.05855 1.94008 8.91925 1.8882 8.77549 1.89105H3.34276C3.21809 1.89327 3.09619 1.92742 2.98914 1.9901C2.84268 2.07414 2.73535 2.21078 2.68991 2.37107L0.964492 8.02859C0.932254 8.12182 0.929082 8.22235 0.955384 8.31735C0.981686 8.41233 1.03627 8.49752 1.11216 8.56197C1.13194 8.5784 1.1527 8.59367 1.17434 8.60767C1.17434 8.60767 1.13936 8.58481 1.11993 8.56578L3.4749 10.5583C3.57452 10.6482 3.70477 10.6985 3.84017 10.6992H9.31566C9.4407 10.6961 9.56269 10.6606 9.66929 10.5964C9.72958 10.5641 9.78352 10.5215 9.82861 10.4706L9.84805 10.444L9.87914 10.4059L9.90245 10.364L10.1589 10.5811C10.2571 10.6675 10.3845 10.715 10.5164 10.7145H16.0036C16.1285 10.7104 16.2502 10.675 16.3572 10.6116C16.4161 10.5773 16.4698 10.535 16.5165 10.4859L16.536 10.4592L16.567 10.4211C16.5836 10.397 16.5979 10.3715 16.6098 10.3449C16.6225 10.3218 16.6329 10.2976 16.6409 10.2726L18.2147 5.1065V5.06078C18.2167 5.04305 18.2167 5.02517 18.2147 5.00744V4.97316C18.2166 4.96179 18.2166 4.95023 18.2147 4.93886C18.2165 4.91477 18.2165 4.89058 18.2147 4.86647H18.7199C18.7639 4.87042 18.8081 4.87042 18.852 4.86647H18.887C18.9155 4.85815 18.9429 4.84664 18.9687 4.83219H19.0075L19.0775 4.77885L19.1085 4.75599L19.1629 4.68741V4.66457L19.2018 4.59979C19.1996 4.5872 19.1996 4.5743 19.2018 4.56171C19.1997 4.55552 19.1997 4.54884 19.2018 4.54265C19.2101 4.52031 19.2166 4.49738 19.2212 4.47407C19.2194 4.46655 19.2194 4.45872 19.2212 4.4512C19.2194 4.43986 19.2194 4.42827 19.2212 4.41692C19.2212 4.41692 19.299 4.26834 19.299 4.26073Z" fill="black"/>
<path id="Vector_2" d="M8.93478 2.32523C8.95541 2.34352 8.96982 2.36757 8.97607 2.39414C8.98234 2.42071 8.98012 2.44851 8.96977 2.47381L7.24824 8.12752C7.22657 8.18924 7.18221 8.24085 7.12389 8.2723C7.07643 8.30342 7.02149 8.3218 6.96454 8.32563H1.49297C1.44624 8.32343 1.40197 8.30445 1.36861 8.2723C1.34877 8.2543 1.33484 8.23091 1.32861 8.20514C1.32238 8.17935 1.32414 8.15233 1.33364 8.12752L3.05905 2.47381C3.07894 2.41131 3.12189 2.35832 3.17952 2.32523C3.22777 2.29634 3.28244 2.27935 3.33885 2.27571H8.81042C8.85679 2.27614 8.90124 2.29385 8.93478 2.32523ZM6.07852 6.9884L7.10833 3.61293H4.22488L3.19895 6.9884H6.07852ZM14.1577 2.38238C14.1763 2.40365 14.1997 2.42051 14.2259 2.43173C14.2521 2.44294 14.2806 2.44821 14.3092 2.44714H15.0204C15.0475 2.4474 15.0741 2.44089 15.0979 2.42823C15.1217 2.41556 15.1418 2.39716 15.1564 2.37476C15.169 2.35726 15.1779 2.33745 15.1826 2.31651C15.1873 2.29557 15.1876 2.27392 15.1836 2.25285L15.0437 1.24707C15.0304 1.20052 15.0064 1.15753 14.9737 1.12134C14.9551 1.10008 14.9317 1.08321 14.9055 1.072C14.8793 1.06078 14.8508 1.05551 14.8222 1.05658H14.111C14.0839 1.05632 14.0572 1.06283 14.0335 1.0755C14.0097 1.08816 13.9895 1.10656 13.975 1.12897C13.9478 1.1823 13.9362 1.21659 13.9478 1.24707L14.0916 2.25285C14.099 2.30182 14.1221 2.3472 14.1577 2.38238ZM16.4155 1.23945C16.4021 1.1929 16.3782 1.14991 16.3455 1.11372C16.3276 1.09253 16.305 1.07567 16.2794 1.06444C16.2538 1.05321 16.2259 1.04791 16.1978 1.04896H15.4828C15.4562 1.04821 15.4298 1.05455 15.4066 1.06729C15.3833 1.08004 15.364 1.09872 15.3507 1.12134C15.3248 1.15514 15.3136 1.1976 15.3196 1.23945L15.4634 2.24523C15.4724 2.29368 15.4953 2.33862 15.5294 2.37476C15.5484 2.39561 15.5718 2.4122 15.598 2.42337C15.6242 2.43455 15.6525 2.44006 15.681 2.43952H16.396C16.4226 2.43987 16.4488 2.43336 16.472 2.42066C16.4952 2.40795 16.5146 2.3895 16.5282 2.36714C16.5417 2.3501 16.5511 2.33029 16.5558 2.3092C16.5606 2.28811 16.5604 2.26625 16.5554 2.24523L16.4155 1.23945ZM13.532 2.76336L13.462 2.26809H10.0151C9.96099 2.27101 9.90864 2.28812 9.86355 2.31761C9.83493 2.33291 9.81001 2.35412 9.79055 2.37977C9.77112 2.40543 9.75758 2.43491 9.75087 2.46619L9.46329 3.41101C9.45181 3.43462 9.44789 3.46112 9.45204 3.48696C9.45623 3.5128 9.46826 3.53679 9.4866 3.55579C9.51937 3.58599 9.56214 3.60359 9.60708 3.60532H13.7963L12.7665 6.98079H8.58892C8.53506 6.98199 8.4826 6.99781 8.43738 7.02649C8.38242 7.06071 8.34228 7.11362 8.32468 7.17507L8.03322 8.11991C8.02371 8.14415 8.02121 8.17049 8.026 8.19603C8.03082 8.22159 8.04271 8.24533 8.06041 8.26466C8.09216 8.29689 8.13526 8.31597 8.18089 8.318H13.668C13.7248 8.31321 13.7795 8.29491 13.8273 8.26466C13.8847 8.23306 13.9278 8.18135 13.9478 8.11991L15.5255 2.95385H13.7496C13.7214 2.95439 13.6935 2.94926 13.6674 2.93878C13.6413 2.92829 13.6177 2.91267 13.5981 2.89289C13.5659 2.85834 13.5432 2.81641 13.532 2.77098V2.76336Z" fill="white"/>
</g>
<defs>
<clipPath id="clip0_212_1128">
<rect width="18.3627" height="10.016" fill="white" transform="translate(0.937744 0.698486)"/>
</clipPath>
</defs>
</svg>
