<svg width="14" height="10" viewBox="0 0 14 10" fill="none" xmlns="http://www.w3.org/2000/svg">
<g id="Logo" clip-path="url(#clip0_212_1148)">
<path id="Vector" d="M12.9709 0.64791C12.9709 0.80349 13.0986 0.92961 13.2561 0.92961H13.5413C13.6988 0.92961 13.8265 0.80349 13.8265 0.64791C13.8265 0.492332 13.6988 0.366211 13.5413 0.366211H13.2561C13.0986 0.366211 12.9709 0.492332 12.9709 0.64791Z" fill="#212326"/>
<path id="Vector_2" d="M4.70078 9.38061H6.08613L5.68282 8.98222C5.57587 8.87657 5.43079 8.81721 5.27953 8.81721H4.70078C2.49579 8.81721 0.708295 7.05151 0.708295 4.87341C0.708295 2.69531 2.49579 0.929613 4.70078 0.929611H9.26363C11.4686 0.929611 13.2561 2.69531 13.2561 4.87341C13.2561 7.05151 11.4686 8.81721 9.26363 8.81721H7.55676C7.32985 8.81721 7.11225 8.72817 6.95179 8.56969L6.47931 8.10295C6.21191 7.83881 5.8492 7.69041 5.47104 7.69041H4.70078C3.12578 7.69041 1.84901 6.4292 1.84901 4.87341C1.84901 3.31761 3.12578 2.05641 4.70078 2.05641H9.26363C10.8386 2.05641 12.1154 3.31761 12.1154 4.87341C12.1154 6.4292 10.8386 7.69041 9.26363 7.69041H8.16765C7.94074 7.69041 7.72314 7.60137 7.56269 7.4429L7.09018 6.97615C6.82278 6.71201 6.4601 6.56361 6.08193 6.56361H4.70078C3.7558 6.56361 2.98972 5.80687 2.98972 4.87341C2.98972 3.93995 3.7558 3.18321 4.70078 3.18321H9.26363C10.2086 3.18321 10.9747 3.93995 10.9747 4.87341C10.9747 5.79549 10.2272 6.54513 9.29812 6.56327L9.29794 6.56361H8.8806C8.65369 6.56361 8.43609 6.47457 8.27563 6.3161L7.80313 5.84935C7.58372 5.6326 7.30017 5.4938 6.99653 5.45096L6.9822 5.43681H4.70078C4.38579 5.43681 4.13043 5.18456 4.13043 4.87341C4.13043 4.56225 4.38579 4.31001 4.70078 4.31001H9.26363C9.57862 4.31001 9.83398 4.56225 9.83398 4.87341C9.83398 5.18456 9.57862 5.43681 9.26363 5.43681H8.12291L8.52622 5.8352C8.63318 5.94085 8.77825 6.00021 8.92951 6.00021H9.26363C9.89362 6.00021 10.4043 5.49572 10.4043 4.87341C10.4043 4.2511 9.89362 3.74661 9.26363 3.74661H4.70078C4.07079 3.74661 3.56007 4.2511 3.56007 4.87341C3.56007 5.49572 4.07079 6.00021 4.70078 6.00021H6.79488C7.02179 6.00021 7.23939 6.08925 7.39984 6.24772L7.87235 6.71446C8.13975 6.97861 8.50243 7.12701 8.8806 7.12701H9.40621V7.12268C10.5998 7.04998 11.545 6.07072 11.545 4.87341C11.545 3.62879 10.5236 2.61981 9.26363 2.61981H4.70078C3.4408 2.61981 2.41936 3.62879 2.41936 4.87341C2.41936 6.11805 3.4408 7.12701 4.70078 7.12701H6.08193C6.30884 7.12701 6.52644 7.21605 6.6869 7.37452L7.1594 7.84126C7.42681 8.10541 7.78948 8.25381 8.16765 8.25381H9.26363C11.1536 8.25381 12.6858 6.74036 12.6858 4.87341C12.6858 3.00646 11.1536 1.49301 9.26363 1.49301H4.70078C2.81078 1.49301 1.27865 3.00646 1.27865 4.87341C1.27865 6.74036 2.81078 8.25381 4.70078 8.25381H5.47104C5.69795 8.25381 5.91555 8.34285 6.076 8.50132L6.54851 8.96806C6.81591 9.23221 7.17859 9.38061 7.55676 9.38061H9.26363C11.7836 9.38061 13.8265 7.36267 13.8265 4.87341C13.8265 2.38415 11.7836 0.366211 9.26363 0.366211L4.70078 0.366212C2.18079 0.366212 0.137939 2.38415 0.137939 4.87341C0.13794 7.36267 2.1808 9.38061 4.70078 9.38061Z" fill="#212326"/>
</g>
<defs>
<clipPath id="clip0_212_1148">
<rect width="13.6885" height="9.0144" fill="white" transform="translate(0.137939 0.366211)"/>
</clipPath>
</defs>
</svg>
