<svg width="14" height="14" viewBox="0 0 14 14" fill="none" xmlns="http://www.w3.org/2000/svg">
<g id="Logo" clip-path="url(#clip0_212_1122)">
<path id="Vector" fill-rule="evenodd" clip-rule="evenodd" d="M3.75077 0.0803223C5.59465 0.0803223 7.08944 1.57509 7.08944 3.41899V0.0803223H10.4281C12.272 0.0803223 13.7668 1.57509 13.7668 3.41899C13.7668 5.26287 12.272 6.75765 10.4281 6.75765C12.272 6.75765 13.7668 8.25244 13.7668 10.0963C13.7668 11.0119 13.3982 11.8414 12.8014 12.4445L12.7889 12.4571L12.7778 12.4681C12.1745 13.0658 11.3444 13.435 10.4281 13.435C9.51802 13.435 8.69297 13.0708 8.09071 12.4803C8.08289 12.4726 8.07508 12.4649 8.0673 12.4571C8.05999 12.4498 8.05271 12.4425 8.04547 12.4351C7.45416 11.8327 7.08944 11.0071 7.08944 10.0963C7.08944 11.9402 5.59465 13.435 3.75077 13.435C1.90688 13.435 0.412109 11.9402 0.412109 10.0963V6.75765H3.75077C1.90688 6.75765 0.412109 5.26287 0.412109 3.41899C0.412109 1.57509 1.90688 0.0803223 3.75077 0.0803223ZM6.42171 3.41899C6.42171 4.89411 5.2259 6.08992 3.75077 6.08992V0.748055C5.2259 0.748055 6.42171 1.94387 6.42171 3.41899ZM13.099 10.0963C13.099 8.6212 11.9032 7.42539 10.4281 7.42539C8.95298 7.42539 7.75717 8.6212 7.75717 10.0963H13.099ZM1.07984 7.42539V10.0963C1.07984 11.5714 2.27566 12.7673 3.75077 12.7673C5.2259 12.7673 6.42171 11.5714 6.42171 10.0963V7.42539H1.07984ZM7.75717 6.08992V0.748055H10.4281C11.9032 0.748055 13.099 1.94387 13.099 3.41899C13.099 4.89411 11.9032 6.08992 10.4281 6.08992H7.75717Z" fill="#263238"/>
</g>
<defs>
<clipPath id="clip0_212_1122">
<rect width="13.3547" height="13.3547" fill="white" transform="translate(0.412109 0.0803223)"/>
</clipPath>
</defs>
</svg>
