<svg width="17" height="10" viewBox="0 0 17 10" fill="none" xmlns="http://www.w3.org/2000/svg">
<g id="Logo" clip-path="url(#clip0_212_1132)">
<path id="Vector" d="M15.3937 1.22257C15.3937 1.23386 15.3937 1.24797 15.3908 1.25644C15.3761 1.36651 15.3761 1.47658 15.3849 1.58948C15.3908 1.6177 15.3967 1.64592 15.4202 1.6685C15.4584 1.71083 15.5172 1.70237 15.5408 1.65157C15.5525 1.62617 15.5525 1.60076 15.5467 1.57536C15.5172 1.46811 15.5114 1.35522 15.5084 1.24515C15.5084 1.23951 15.5084 1.23104 15.5084 1.22257C15.5408 1.21975 15.5702 1.21693 15.5966 1.21693C15.6172 1.21411 15.6349 1.21128 15.6496 1.20281C15.6937 1.18024 15.6937 1.13226 15.6466 1.10968C15.629 1.10121 15.6055 1.09839 15.5849 1.09839C15.5114 1.10121 15.4379 1.10121 15.3643 1.10121C15.3379 1.10121 15.3114 1.10404 15.2849 1.10686C15.2702 1.10968 15.2526 1.10968 15.2408 1.11815C15.2202 1.12661 15.2085 1.14072 15.2085 1.16048C15.2114 1.18024 15.2202 1.19153 15.2408 1.19999C15.2526 1.20846 15.2673 1.21128 15.282 1.21128C15.3173 1.21411 15.3555 1.21975 15.3937 1.22257ZM16.2024 1.3524C16.2024 1.35522 16.2053 1.35804 16.2053 1.35804C16.2171 1.43425 16.2289 1.50763 16.2377 1.58101C16.2407 1.60641 16.2436 1.62899 16.2612 1.64874C16.2995 1.69672 16.3583 1.69108 16.3847 1.64028C16.3965 1.61488 16.3994 1.58948 16.3936 1.56125C16.3759 1.47658 16.3671 1.39191 16.3494 1.31006C16.3377 1.25926 16.323 1.21128 16.3083 1.16613C16.2995 1.1379 16.2789 1.11814 16.2436 1.11532C16.2083 1.10968 16.1818 1.12661 16.1671 1.15201C16.1495 1.17459 16.1348 1.19717 16.123 1.22257C16.1024 1.26773 16.0848 1.31289 16.0613 1.35522C16.0583 1.36651 16.0554 1.37498 16.0495 1.38344C16.0466 1.3778 16.0436 1.37498 16.0436 1.37498C16.0054 1.30442 15.9701 1.23386 15.9319 1.16613C15.926 1.16048 15.9231 1.15484 15.9201 1.14919C15.9025 1.12379 15.8819 1.10968 15.8495 1.10968C15.8201 1.1125 15.7966 1.12944 15.7819 1.15484C15.776 1.16613 15.776 1.17459 15.7731 1.18588C15.7613 1.2762 15.7466 1.36651 15.7349 1.45683C15.729 1.50763 15.726 1.55843 15.726 1.60923C15.7231 1.62052 15.726 1.63463 15.7319 1.64592C15.7378 1.6685 15.7554 1.68261 15.779 1.68543C15.8084 1.68826 15.8289 1.67979 15.8378 1.65721C15.8466 1.64028 15.8495 1.62617 15.8525 1.61205C15.8643 1.56125 15.8731 1.51327 15.8819 1.46529C15.8878 1.43707 15.8907 1.41449 15.8995 1.38344C15.9054 1.39473 15.9113 1.4032 15.9172 1.41167C15.9436 1.44554 15.9701 1.4794 16.0025 1.50763C16.0348 1.5302 16.0613 1.52738 16.0877 1.50198C16.0936 1.49634 16.0966 1.49352 16.1024 1.48787C16.1289 1.44836 16.1613 1.40885 16.1877 1.36933C16.1936 1.36369 16.1965 1.35804 16.2024 1.3524Z" fill="#3A3B7B"/>
<path id="Vector_2" d="M9.42701 1.27798C9.40656 1.33162 9.40266 1.37026 9.4121 1.40238C9.42253 1.44606 9.44958 1.46035 9.4863 1.44925C9.8317 1.36727 10.5891 1.59995 10.8695 1.6648C10.9356 1.67842 10.9894 1.59648 10.9443 1.52302C10.8784 1.45188 10.1214 1.1473 9.83253 1.13069C9.7193 1.12455 9.51688 1.09668 9.42701 1.27798Z" fill="#3A3B7B"/>
<path id="Vector_3" d="M12.387 0.292131C12.4238 0.312523 12.4444 0.331975 12.4545 0.353709C12.4697 0.382219 12.4617 0.401944 12.4363 0.412009C12.208 0.518957 11.9041 0.979388 11.7815 1.13819C11.7518 1.17472 11.6832 1.15349 11.6729 1.09342C11.675 1.02549 11.9443 0.52582 12.0946 0.389727C12.1537 0.336592 12.2512 0.232335 12.387 0.292131Z" fill="#3A3B7B"/>
<path id="Vector_4" d="M10.5687 0.0654331C10.613 0.0334431 10.6589 0.0222328 10.6824 0.0430223C11.0269 0.325773 11.2095 0.773534 11.3226 1.18345C11.3269 1.193 11.3272 1.2067 11.3238 1.221C11.3224 1.23322 11.3131 1.24613 11.2983 1.25612C11.2825 1.26714 11.2689 1.2705 11.2625 1.261C11.1115 1.06391 10.2492 0.297061 10.5687 0.0654331Z" fill="#3A3B7B"/>
<path id="Vector_5" d="M3.27402 4.9675C3.35658 4.90851 3.44634 4.85939 3.54132 4.82128C3.64069 4.79401 3.74661 4.79852 3.84307 4.83417C3.9395 4.86982 4.02126 4.93463 4.07591 5.01882C4.1248 5.10279 4.14392 5.19974 4.13043 5.29506C4.11693 5.39037 4.07154 5.47889 4.00106 5.54731C3.94643 5.60276 3.8844 5.65106 3.81664 5.69098C3.5146 5.87826 3.20986 6.05527 2.90514 6.24255C2.84279 6.28942 2.77665 6.33147 2.70734 6.36826C2.60192 6.41872 2.48144 6.43223 2.36674 6.40646C2.25204 6.38072 2.15032 6.31728 2.07919 6.22717C2.02601 6.16335 1.98113 6.09358 1.94554 6.01935C1.65685 5.437 1.35748 4.85719 1.07949 4.26456C0.951183 4.00802 0.846937 3.71298 0.745363 3.42822C0.701418 3.34548 0.692836 3.24956 0.721446 3.16084C0.750055 3.07211 0.813599 2.99761 0.89856 2.95316C0.983521 2.90871 1.0832 2.89784 1.17639 2.92283C1.26958 2.94783 1.34893 3.00674 1.39757 3.08701C1.54708 3.2777 1.67943 3.48026 1.79318 3.69247C2.08186 4.20556 2.35718 4.71865 2.63517 5.21635C2.65136 5.24386 2.66921 5.2704 2.68863 5.29588C2.89787 5.21145 3.09466 5.10105 3.27402 4.9675Z" fill="#3A3B7B"/>
<path id="Vector_6" d="M6.25879 4.78851C5.59857 5.52992 4.49195 5.34264 3.93597 4.38829C3.54036 3.711 3.47086 2.59245 4.33158 1.88695C4.51537 1.73924 4.73515 1.63863 4.97041 1.59448C5.25887 1.55479 5.55302 1.60363 5.81081 1.73403C6.06861 1.86442 6.27686 2.0697 6.40582 2.32051C6.87626 3.14147 6.80944 4.18817 6.25879 4.78851ZM5.99149 3.05937C5.92135 2.85763 5.78064 2.6854 5.59322 2.57192C5.48716 2.49937 5.35829 2.4641 5.22832 2.47204C5.09832 2.47998 4.97516 2.53066 4.87953 2.61553C4.49731 2.94136 4.4171 3.71357 4.69509 4.17279C4.73053 4.24768 4.78256 4.31422 4.84759 4.36778C4.91262 4.42134 4.98906 4.46062 5.07156 4.48284C5.15405 4.50509 5.2406 4.50975 5.32518 4.49653C5.40976 4.48328 5.49028 4.45248 5.56116 4.40624C5.76836 4.25206 5.92037 4.03975 5.99604 3.79884C6.07175 3.55791 6.06735 3.30035 5.98349 3.06195L5.99149 3.05937Z" fill="#3A3B7B"/>
<path id="Vector_7" d="M8.9531 3.38281C8.88551 3.39676 8.81568 3.3976 8.74774 3.38525C8.67982 3.37291 8.61512 3.34767 8.55751 3.31099C8.50709 3.2833 8.4637 3.24526 8.43043 3.19955C8.39719 3.15385 8.3749 3.10165 8.3652 3.04669C8.35547 2.99174 8.35858 2.93541 8.37425 2.88174C8.38994 2.82807 8.41785 2.7784 8.45594 2.73631C8.52229 2.65172 8.61649 2.59116 8.72324 2.56443C9.00194 2.48679 9.28886 2.43946 9.57859 2.42333C9.64226 2.41623 9.70675 2.4214 9.76828 2.43854C9.82984 2.4557 9.88718 2.48446 9.93699 2.52319C9.98678 2.5619 10.028 2.60978 10.0583 2.664C10.0885 2.71822 10.1072 2.7777 10.1132 2.83894C10.1967 3.13974 10.2059 3.45514 10.1399 3.75995C9.89935 4.74509 9.07072 5.08372 8.14051 4.76817C7.8794 4.6838 7.65046 4.5266 7.48296 4.31665C7.25956 4.06382 7.10116 3.76418 7.02053 3.44183C6.95521 3.15477 6.96236 2.85692 7.04142 2.57308C7.12046 2.28924 7.26911 2.02765 7.47494 1.81018C7.67028 1.57381 7.92381 1.38779 8.2127 1.26886C8.39523 1.17229 8.60884 1.14484 8.81145 1.1919C8.8574 1.20411 8.89912 1.22789 8.93227 1.26079C8.96543 1.29369 8.98881 1.33451 8.99999 1.379C9.01118 1.4235 9.00975 1.47005 8.99587 1.51384C8.98197 1.55763 8.95615 1.59706 8.92104 1.62803C8.85429 1.68602 8.78177 1.73758 8.70452 1.78196C8.46688 1.92721 8.26008 2.11437 8.09507 2.33353C7.98691 2.47535 7.91242 2.63821 7.87687 2.81062C7.84129 2.98303 7.84553 3.16082 7.88927 3.33152C7.94988 3.56424 8.0844 3.77313 8.27416 3.92926C8.86222 4.44236 9.6267 3.94721 9.49305 3.24684C9.29794 3.29303 9.12685 3.34177 8.9531 3.38281Z" fill="#3A3B7B"/>
<path id="Vector_8" d="M12.5458 4.82962C11.6771 5.34273 10.6881 4.82962 10.4716 3.75213C10.3139 2.98249 10.6132 1.90498 11.6611 1.4945C11.884 1.40905 12.1258 1.37905 12.364 1.40728C12.6503 1.45757 12.9129 1.59282 13.1148 1.79396C13.3166 1.9951 13.4477 2.25197 13.4894 2.5284C13.6658 3.44426 13.2648 4.42171 12.5458 4.82962ZM12.8479 3.10305C12.8476 2.88994 12.769 2.68371 12.626 2.52069C12.5495 2.41987 12.439 2.34763 12.3132 2.31627C12.1875 2.28493 12.0543 2.29642 11.9364 2.34881C11.4659 2.54378 11.1345 3.25185 11.2547 3.77266C11.2639 3.85439 11.2916 3.93321 11.3358 4.0036C11.3801 4.07399 11.4398 4.13426 11.5108 4.18021C11.5818 4.22614 11.6625 4.25663 11.747 4.26955C11.8316 4.28245 11.9181 4.27747 12.0005 4.25496C12.2492 4.17158 12.4645 4.01577 12.6164 3.80925C12.7683 3.60274 12.8492 3.35584 12.8479 3.10305Z" fill="#3A3B7B"/>
<path id="Vector_9" d="M14.3677 5.04508C14.3546 5.13897 14.3032 5.22402 14.2247 5.28152C14.1463 5.33899 14.0473 5.36423 13.9494 5.35165C13.8516 5.33906 13.763 5.28968 13.7031 5.21438C13.6432 5.1391 13.6169 5.04404 13.63 4.95015C13.6431 4.85625 13.6946 4.7712 13.773 4.71371C13.8515 4.65621 13.9505 4.63099 14.0483 4.64358C14.1462 4.65616 14.2348 4.70552 14.2947 4.78082C14.3546 4.85612 14.3809 4.95118 14.3677 5.04508ZM14.1352 1.58424C14.186 1.50972 14.2606 1.45297 14.3478 1.42245C14.435 1.39194 14.5301 1.38929 14.619 1.41492C14.7094 1.43661 14.7892 1.48745 14.8452 1.5589C14.9011 1.63036 14.9298 1.7181 14.9264 1.80743C14.9146 1.95072 14.8923 2.09303 14.8596 2.2333C14.7714 2.70792 14.6858 3.18252 14.5923 3.65202C14.5495 3.8393 14.4934 4.01888 14.4319 4.20872C14.4105 4.26806 14.3748 4.32169 14.3277 4.36521C14.2984 4.39796 14.261 4.42307 14.2189 4.43823C14.1768 4.45341 14.1314 4.45814 14.0869 4.452C14.0424 4.44586 14.0002 4.42905 13.9642 4.40313C13.9283 4.37719 13.8998 4.34297 13.8813 4.30364C13.8495 4.2331 13.8322 4.15729 13.8305 4.08045C13.8305 3.76233 13.8305 3.44165 13.8519 3.12095C13.8882 2.66329 13.9597 2.20882 14.0657 1.76125C14.0782 1.70129 14.1017 1.64395 14.1352 1.59193V1.58424Z" fill="#3A3B7B"/>
<path id="Vector_10" fill-rule="evenodd" clip-rule="evenodd" d="M2.14479 7.10685C2.11323 7.17447 2.10457 7.24986 2.12 7.32241C2.13026 7.41804 2.15279 7.51212 2.18709 7.60247C2.22991 7.71311 2.27783 7.82252 2.33691 7.95736C2.35049 7.98839 2.36469 8.02078 2.37955 8.05487C2.45923 8.23755 2.55919 8.47102 2.69254 8.80891C2.73028 8.90489 2.7638 9.00167 2.79755 9.0991C2.81118 9.13847 2.82487 9.17797 2.83887 9.21756C2.88908 9.3583 2.97546 9.48474 3.08997 9.58495C3.13859 9.64003 3.20308 9.68016 3.2754 9.70023C3.34913 9.7207 3.42754 9.7194 3.50049 9.69651C3.57343 9.67361 3.6375 9.63017 3.68437 9.57183C3.73032 9.51464 3.75765 9.44572 3.76296 9.37373C3.79278 9.23347 3.7826 9.08804 3.73346 8.95282C3.65548 8.7283 3.56664 8.50346 3.46419 8.28354L3.46372 8.28257C3.29519 7.9385 3.12388 7.59681 2.94447 7.25499L2.94313 7.25259C2.8906 7.16354 2.82235 7.08392 2.74142 7.01734C2.68889 6.9579 2.61642 6.91781 2.53639 6.90399C2.45466 6.88988 2.37036 6.9041 2.29855 6.94413C2.23062 6.98136 2.17677 7.03833 2.14479 7.10685Z" fill="#3A3B7B"/>
<path id="Vector_11" fill-rule="evenodd" clip-rule="evenodd" d="M4.71868 6.25944C4.45443 6.19375 4.17845 6.18418 3.90999 6.2314C3.70205 6.25105 3.49755 6.29709 3.35554 6.38827C3.28331 6.43468 3.22491 6.49427 3.19243 6.57001C3.15977 6.64617 3.1556 6.73327 3.18237 6.83031C3.23124 7.00806 3.2947 7.18089 3.35793 7.35316L3.36818 7.38107L3.36843 7.38168C3.55883 7.88216 3.75106 8.38094 3.94503 8.87801C3.96765 8.95635 3.99964 9.03191 4.04035 9.10319L4.04111 9.10451C4.09489 9.19305 4.16386 9.27225 4.24512 9.33877C4.28576 9.37534 4.33602 9.40065 4.39052 9.41196C4.44555 9.42336 4.50278 9.42006 4.55598 9.40236C4.60919 9.3847 4.65631 9.35334 4.69222 9.3117C4.72755 9.27075 4.75069 9.22142 4.75918 9.16892C4.79424 9.02628 4.78301 8.87676 4.72697 8.74042C4.70949 8.69453 4.69577 8.64764 4.68131 8.59829C4.67649 8.58183 4.6716 8.56508 4.66645 8.54803C5.11045 8.38145 5.58289 8.15746 5.74902 7.63639C5.81407 7.45632 5.8195 7.26134 5.76453 7.07817C5.70952 6.8948 5.59665 6.73228 5.44148 6.61296C5.23029 6.44595 4.9836 6.32527 4.71868 6.25944ZM3.98621 6.89857C3.99495 6.89615 4.00376 6.8939 4.01259 6.89181C4.30166 6.8482 4.5974 6.90631 4.84538 7.05542C4.95466 7.12836 4.99942 7.20941 5.00711 7.28739C5.01505 7.36769 4.98463 7.45469 4.92352 7.53833C4.80805 7.69633 4.59733 7.82279 4.40699 7.84636C4.26823 7.53965 4.12732 7.22054 3.98621 6.89857Z" fill="#3A3B7B"/>
<path id="Vector_12" d="M6.48033 5.698C6.79501 5.55851 7.18482 5.53442 7.48984 5.63249C7.56666 5.65397 7.63331 5.70042 7.67839 5.76391C7.72318 5.82699 7.74385 5.90302 7.73694 5.97903C7.73649 6.02836 7.72387 6.0769 7.70013 6.12069C7.67597 6.16527 7.64098 6.20361 7.59811 6.23248C7.55525 6.26133 7.50578 6.27988 7.45389 6.2865C7.40197 6.29314 7.34918 6.28769 7.29993 6.27059L7.29618 6.26929L7.29266 6.26751C7.26747 6.25486 7.2407 6.24533 7.21302 6.23912L7.21127 6.23875C6.9967 6.18404 6.79429 6.27468 6.72036 6.38605C6.6851 6.43915 6.68073 6.49275 6.7101 6.54151C6.74155 6.59373 6.81868 6.65233 6.97477 6.69409C7.0177 6.70541 7.0617 6.71632 7.10634 6.72741C7.22976 6.75808 7.35803 6.78995 7.48206 6.83411L7.48253 6.83429C8.05474 7.04325 8.26782 7.47601 8.19487 7.88306C8.12271 8.28559 7.77245 8.65193 7.24572 8.73834C7.05406 8.77912 6.8546 8.77118 6.66708 8.71531C6.47909 8.65926 6.30964 8.557 6.17557 8.41864L6.17207 8.41503C6.12975 8.3629 6.10128 8.30166 6.08866 8.23668C6.07705 8.17803 6.08317 8.11743 6.10626 8.062C6.12921 8.0069 6.16804 7.95922 6.21814 7.92447C6.27107 7.88508 6.33486 7.86145 6.40164 7.85652C6.4682 7.85161 6.5348 7.8655 6.59324 7.89644C6.65161 7.9235 6.70591 7.95803 6.75464 7.99909L6.75556 7.99984C6.84177 8.07551 6.94608 8.09523 7.0461 8.07697C7.14758 8.05844 7.24301 8.00081 7.30439 7.92434C7.36536 7.84836 7.38984 7.7581 7.36079 7.67047C7.33156 7.58221 7.24366 7.48332 7.05054 7.40065C7.00006 7.38007 6.94772 7.36348 6.89327 7.34733C6.87858 7.34297 6.86365 7.33864 6.84854 7.33424C6.80828 7.32251 6.76686 7.31043 6.72624 7.29712C6.69826 7.28796 6.67051 7.27929 6.64303 7.27069C6.56791 7.24721 6.49467 7.22432 6.42419 7.19363C6.2708 7.1435 6.13827 7.04725 6.04634 6.91912C5.95403 6.79048 5.90758 6.63664 5.9139 6.48058C5.91439 6.10027 6.16396 5.83826 6.48033 5.698Z" fill="#3A3B7B"/>
<path id="Vector_13" d="M10.4699 5.65752C10.4089 5.62892 10.3414 5.61534 10.2736 5.618C10.2058 5.62069 10.1397 5.63952 10.0813 5.67286C10.0233 5.70596 9.97477 5.7523 9.93998 5.80777C9.90808 5.85449 9.886 5.90673 9.875 5.96159C9.86399 6.0164 9.86426 6.07273 9.87576 6.12742C9.88712 6.1977 9.89972 6.26605 9.91216 6.33345C9.93276 6.44499 9.9528 6.55402 9.96603 6.66519L9.96652 6.66801C9.99663 6.84235 10.0124 7.01868 10.0138 7.19538L10.0139 7.19789C10.0242 7.38871 9.95648 7.57582 9.82523 7.71951L9.82315 7.72206C9.78044 7.77459 9.72335 7.81468 9.65823 7.83785C9.59313 7.86102 9.5226 7.86635 9.45453 7.85323C9.38645 7.84012 9.32352 7.80909 9.27277 7.76361C9.22202 7.71812 9.18541 7.65981 9.16714 7.59553C9.12814 7.46005 9.10556 7.32069 9.09983 7.18026L9.16645 6.16225C9.16743 6.14896 9.16855 6.13532 9.1697 6.12154C9.17223 6.09062 9.17483 6.05914 9.17591 6.02976C9.17748 5.98654 9.17613 5.94209 9.16564 5.90002C9.1549 5.85702 9.13448 5.81611 9.09826 5.78128C9.06239 5.7468 9.01397 5.72136 8.95304 5.70404C8.84286 5.67343 8.7497 5.6744 8.67207 5.70602C8.59439 5.73764 8.54118 5.79635 8.50352 5.86417C8.46615 5.93142 8.44214 6.01103 8.42398 6.09078C8.41051 6.14995 8.39968 6.21207 8.38939 6.2712C8.38583 6.29157 8.38235 6.31157 8.37884 6.331L8.37875 6.33158C8.32369 6.65584 8.3073 6.98508 8.3299 7.3129C8.33411 7.49007 8.3726 7.66494 8.44344 7.82859C8.52336 8.03975 8.6681 8.22269 8.85858 8.35329C9.04945 8.48416 9.27723 8.55627 9.51175 8.56007C9.74628 8.56388 9.97648 8.49921 10.1719 8.37464C10.3669 8.25024 10.5181 8.07196 10.6054 7.86338C10.7275 7.59767 10.7848 7.3087 10.773 7.0185C10.7658 6.80664 10.7538 6.59315 10.7419 6.38074C10.736 6.27654 10.7302 6.17257 10.7249 6.06924C10.7223 5.96561 10.6867 5.86525 10.6229 5.78161C10.5834 5.72873 10.5308 5.68609 10.4699 5.65752Z" fill="#3A3B7B"/>
<path id="Vector_14" d="M12.6298 7.25389C12.6236 7.26144 12.6171 7.26925 12.6102 7.27737C12.5606 7.00258 12.5146 6.72787 12.4685 6.45274C12.452 6.35403 12.4354 6.25489 12.4187 6.15605L12.4168 6.14502L12.4107 6.1355C12.3992 6.11756 12.3981 6.09998 12.3981 6.06248V6.05815L12.3974 6.05386C12.3849 5.97642 12.3484 5.90436 12.2927 5.8471C12.2371 5.79 12.1649 5.75026 12.0855 5.73301C12.0062 5.71424 11.9229 5.71837 11.846 5.74491C11.7693 5.77138 11.7025 5.81896 11.6539 5.88167C11.6134 5.9298 11.5803 5.98318 11.5554 6.04022C11.499 6.16309 11.4422 6.28627 11.3851 6.40979L11.3842 6.41192C11.2418 6.72027 11.0985 7.0307 10.9593 7.34356L10.9589 7.34457C10.8734 7.54744 10.8029 7.76119 10.7326 7.97429C10.7186 8.01682 10.7046 8.05934 10.6904 8.10174C10.665 8.16899 10.654 8.24041 10.6578 8.31182C10.6531 8.37574 10.6691 8.43951 10.7035 8.4945C10.7385 8.55062 10.7911 8.59476 10.8536 8.62075C10.9199 8.64865 10.9941 8.65457 11.0643 8.63758C11.1344 8.62061 11.1966 8.5818 11.2412 8.52722C11.2981 8.46 11.3471 8.38668 11.387 8.309C11.5049 8.07756 11.6176 7.84329 11.7298 7.61004C11.7732 7.51982 11.8153 7.43902 11.8633 7.35102C11.8666 7.36187 11.8699 7.37245 11.8734 7.38306C11.9237 7.59552 12.0086 7.79902 12.1249 7.9861C12.1469 8.02573 12.1776 8.06037 12.2148 8.08763C12.2524 8.11523 12.2959 8.13459 12.3422 8.14443C12.3884 8.15426 12.4363 8.15431 12.4826 8.14456C12.5288 8.13483 12.5724 8.11545 12.6101 8.08799L12.6847 8.0344L13.2635 7.56643L13.2293 7.7758C13.1823 8.0636 13.1357 8.34901 13.0861 8.63448C13.0537 8.761 13.0538 8.89317 13.0863 9.01965C13.1004 9.09083 13.1362 9.15637 13.1893 9.2079C13.2428 9.25985 13.3114 9.29515 13.3861 9.30923C13.4608 9.32329 13.5382 9.3155 13.6082 9.28683C13.6772 9.2586 13.7359 9.21138 13.7769 9.15119C13.8723 9.03754 13.9317 8.89994 13.948 8.75478C13.9726 8.54978 14.0004 8.34199 14.0281 8.13426C14.0601 7.89483 14.0921 7.65546 14.1191 7.42069L14.1192 7.41996C14.1452 7.16297 14.1578 6.90492 14.1569 6.64671C14.1626 6.56512 14.1415 6.48383 14.0964 6.41436C14.0511 6.34465 13.9841 6.29045 13.9049 6.25945C13.8224 6.22349 13.7302 6.21388 13.6417 6.23205C13.5537 6.2501 13.4741 6.29459 13.4144 6.35904C13.3076 6.45382 13.2075 6.55524 13.1146 6.66264L13.1139 6.66337C13.0125 6.78468 12.9118 6.90837 12.8117 7.03127C12.7508 7.10598 12.6901 7.18051 12.6298 7.25389Z" fill="#3A3B7B"/>
</g>
<defs>
<clipPath id="clip0_212_1132">
<rect width="15.6917" height="9.68213" fill="white" transform="translate(0.704834 0.0324707)"/>
</clipPath>
</defs>
</svg>
