<svg width="46" height="96" viewBox="0 0 46 96" fill="none" xmlns="http://www.w3.org/2000/svg">
<path id="Vector" d="M40.1378 0.786846H33.4575C33.2395 0.790886 33.0245 0.83783 32.8246 0.924994C32.6248 1.01216 32.4441 1.13784 32.2929 1.29485C32.1416 1.45186 32.0228 1.63713 31.9432 1.84008C31.8635 2.04302 31.8247 2.25967 31.8288 2.47764V3.6888C31.8329 3.9066 31.794 4.12308 31.7144 4.32583C31.6347 4.52858 31.5158 4.71362 31.3645 4.87036C31.2132 5.02709 31.0325 5.15244 30.8327 5.23924C30.6329 5.32603 30.4179 5.37255 30.2001 5.37614L17.1776 5.31748C16.737 5.30574 16.3191 5.11963 16.0157 4.80002C15.7123 4.48042 15.5481 4.05345 15.5592 3.61289V2.40173C15.5704 1.96175 15.4067 1.53529 15.104 1.21578C14.8013 0.896277 14.3843 0.709772 13.9443 0.69713H11.5945L5.74572 0.669527C4.35458 0.661244 3.01683 1.20454 2.02539 2.18045C1.03396 3.15637 0.469623 4.48538 0.455956 5.87648L0.110896 90.216C0.107716 90.9062 0.240499 91.5902 0.501668 92.229C0.762837 92.8678 1.14728 93.4489 1.63303 93.9391C2.11879 94.4294 2.69635 94.8192 3.33273 95.0862C3.96912 95.3532 4.65187 95.4923 5.342 95.4954L39.7376 95.6542C40.4282 95.6573 41.1126 95.5245 41.7518 95.2631C42.3911 95.0018 42.9726 94.6171 43.4631 94.131C43.9537 93.645 44.3437 93.067 44.6109 92.4302C44.8781 91.7934 45.0173 91.1102 45.0204 90.4196L45.3655 6.08006C45.3738 4.68504 44.8277 3.34382 43.8475 2.35124C42.8672 1.35867 41.5329 0.795969 40.1378 0.786846Z" fill="white"/>
</svg>
